<?xml version="1.0" encoding="utf-8"?>
<!DOCTYPE svg PUBLIC "-//W3C//DTD SVG 1.1//EN" "http://www.w3.org/Graphics/SVG/1.1/DTD/svg11.dtd">
<svg version="1.1" id="Capa_1"
	 xmlns="http://www.w3.org/2000/svg" xmlns:xlink="http://www.w3.org/1999/xlink" x="0px" y="0px" viewBox="0 0 808.5 425.2"
	 style="enable-background:new 0 0 808.5 425.2;" xml:space="preserve">
<style type="text/css">
	.st0{fill:none;}
	.st1{fill:#FFFFFF;}
</style>
<metadata>
	<sfw>
		<slices></slices>
		<sliceSourceBounds  height="425.2" width="808.5" y="-510.7" x="17.1" bottomLeftOrigin="true"></sliceSourceBounds>
		<optimizationSettings>
			<targetSettings  fileFormat="PNG24Format" targetSettingsID="0">
				<PNG24Format  transparency="true" matteColor="#FFFFFF" filtered="false" noMatteColor="false" interlaced="false">
					</PNG24Format>
			</targetSettings>
		</optimizationSettings>
	</sfw>
</metadata>
<g>
	<g>
		<rect class="st0" width="808.5" height="425.2"/>
	</g>
	<g>
		<g>
			<path class="st1" d="M327.1,152.6h4.8v16.6c0,5.1,2.6,7,7.3,7c3,0,5.1-1.8,5.1-5.7v-17.9h4.6v16.9c0,6.7-3.9,10.4-11.4,10.4
				c-6.5,0-10.4-3.1-10.4-9.2V152.6z M378.7,180l-14.3-20.5v20H360v-26.8h4.8l13.6,19.9v-19.9h4.3v26.5L378.7,180z M399.3,179.4
				h-4.8v-26.8h4.8V179.4z M408,152.9l4.9-0.8l7.7,22.2l7.5-21.7h4.9l-10.2,26.6L418,180L408,152.9z M441.7,152.6h16.8l-0.4,3.6
				c-3.8-0.1-7.7-0.1-11.5-0.2v8h10.7l-0.5,3.2l-10.2-0.2v8.9l12.7-0.2l-0.4,3.7h-17.1V152.6z M473.4,168.3v11.1h-4.8v-26.8h9.2
				c5.8,0,9.2,2.3,9.2,6.8c0,3.7-2.1,6.2-4.9,7.6l7.1,12.4h-5.4l-5.6-11.2c-0.8,0.1-1.5,0.2-2.2,0.2
				C475.2,168.4,474.3,168.3,473.4,168.3z M482,160.8c0-3.2-1.8-4.9-5.9-4.9c-1,0-1.9,0-2.8,0.1v9.1c1.1,0.1,2.2,0.2,3.6,0.2
				C479.6,165.1,482,164,482,160.8z M497.7,159.4c0-4.2,4.1-7.4,9.9-7.4c3.2,0,6.2,0.4,8.1,1l-0.9,3.9c-2.6-0.9-5.4-1.5-8.5-1.5
				c-2.5,0-4.2,1.1-4.2,3.3c0,2.1,1.6,3.3,5.9,5c6.8,2.7,8.3,4.7,8.3,8.2c0,4.8-4.4,8.1-11.3,8.1c-2.8,0-5.9-0.5-7.9-1.1l0.9-4
				c2.7,1,5.7,1.7,9.1,1.7c2.4,0,4.5-1.2,4.5-3.3c0-2.3-1.2-3.7-6.2-5.6C500,165.5,497.7,163.6,497.7,159.4z M531,179.4h-4.8v-26.8
				h4.8V179.4z M552,152.6c8.3,0,13.6,4.5,13.6,12.6c0,9-6.8,14.2-15.8,14.2h-7.1v-26.8H552z M547.5,175.9c1.2,0.1,3.1,0.2,4.7,0.2
				c4.3,0,8.4-2.5,8.4-10c0-7.1-4.6-10-10.2-10h-3V175.9z M589,172.1h-10.5l-2.6,7.3h-4.8l10.3-26.7l5-0.7l10.2,27.3h-5.1L589,172.1
				z M583.7,157.1l-4,11.4h8L583.7,157.1z M614.7,152.6c8.3,0,13.6,4.5,13.6,12.6c0,9-6.8,14.2-15.8,14.2h-7.1v-26.8H614.7z
				 M610.2,175.9c1.2,0.1,3.1,0.2,4.7,0.2c4.3,0,8.4-2.5,8.4-10c0-7.1-4.6-10-10.2-10h-3V175.9z"/>
		</g>
		<g>
			<path class="st1" d="M362.7,256.6l-27.1-38.8v37.8h-8.3v-50.7h9.1l25.8,37.6v-37.6h8.2V255L362.7,256.6z M417.6,241.7h-19.9
				l-4.9,13.9h-9l19.6-50.5l9.4-1.2l19.4,51.7h-9.6L417.6,241.7z M407.6,213.4l-7.6,21.6h15.2L407.6,213.4z M482,253
				c-3.7,2.1-10.6,3.6-16.2,3.6c-14.6,0-25.3-8.8-25.3-25.9c0-15.8,10.6-26.9,26.9-26.9c6.3,0,11.8,1,14.2,2.2l-2.2,7.1
				c-3.3-1.1-8.6-2.6-14.7-2.6c-7.2,0-14.8,4.3-14.8,18.8c0,15.3,9.6,20.3,18.5,20.3c4.7,0,9.4-1.3,11.7-2.7L482,253z M505.7,255.5
				h-9.1v-50.7h9.1V255.5z M544.7,256.6c-13.7,0-23.2-9.2-23.2-25.4c0-17.3,11.4-27.4,27.4-27.4c13.7,0,23.2,9.3,23.2,25.5
				C572.2,246.4,560.8,256.6,544.7,256.6z M545.4,210.5c-8,0-14.4,5.1-14.4,18.3c0,15.1,7,21.1,17.3,21.1c8.1,0,14.5-5,14.5-18.4
				C562.7,216.5,555.6,210.5,545.4,210.5z M623.2,256.6l-27.1-38.8v37.8h-8.3v-50.7h9.1l25.8,37.6v-37.6h8.2V255L623.2,256.6z
				 M678.2,241.7h-19.9l-4.9,13.9h-9L664,205l9.4-1.2l19.4,51.7h-9.6L678.2,241.7z M668.1,213.4l-7.6,21.6h15.2L668.1,213.4z
				 M706.3,204.8h9.1v44.1l22.1-0.3l-0.9,6.9h-30.3V204.8z"/>
		</g>
		<g>
			<path class="st1" d="M337.2,281.5c8.3,0,13.6,4.5,13.6,12.6c0,9-6.8,14.2-15.8,14.2h-7.1v-26.8H337.2z M332.7,304.7
				c1.2,0.1,3.1,0.2,4.7,0.2c4.3,0,8.4-2.5,8.4-10c0-7.1-4.6-10-10.2-10h-3V304.7z M360.3,281.5h16.8l-0.4,3.6
				c-3.8-0.1-7.7-0.1-11.5-0.2v8h10.7l-0.5,3.2l-10.2-0.2v8.9l12.7-0.2l-0.4,3.7h-17.1V281.5z"/>
		</g>
		<g>
			<path class="st1" d="M420.8,306.9c-2,1.1-5.6,1.9-8.6,1.9c-7.7,0-13.3-4.6-13.3-13.7c0-8.4,5.6-14.2,14.2-14.2
				c3.3,0,6.2,0.5,7.5,1.1l-1.1,3.8c-1.7-0.6-4.5-1.4-7.8-1.4c-3.8,0-7.8,2.3-7.8,10c0,8.1,5.1,10.7,9.8,10.7c2.5,0,5-0.7,6.2-1.4
				L420.8,306.9z M439.6,308.8c-7.2,0-12.3-4.9-12.3-13.4c0-9.1,6-14.5,14.5-14.5c7.2,0,12.3,4.9,12.3,13.5
				C454.1,303.4,448.1,308.8,439.6,308.8z M439.9,284.5c-4.2,0-7.6,2.7-7.6,9.7c0,8,3.7,11.2,9.1,11.2c4.3,0,7.7-2.6,7.7-9.7
				C449.1,287.6,445.4,284.5,439.9,284.5z M463.8,281.5h4.8v23.3l11.7-0.2l-0.5,3.7h-16V281.5z M498.8,308.8
				c-7.2,0-12.3-4.9-12.3-13.4c0-9.1,6-14.5,14.5-14.5c7.2,0,12.3,4.9,12.3,13.5C513.2,303.4,507.2,308.8,498.8,308.8z M499.1,284.5
				c-4.2,0-7.6,2.7-7.6,9.7c0,8,3.7,11.2,9.1,11.2c4.3,0,7.7-2.6,7.7-9.7C508.3,287.6,504.5,284.5,499.1,284.5z M527.6,287.5
				l-2,20.7h-4.5l3.3-26.8h5.1l8.3,21.4l8-21.4h5.1l3.2,26.8h-4.7l-2.1-20.8l-7.5,20h-0.2v0.1l-4.2,0.7L527.6,287.5z M564.3,281.5
				h8.7c5.9,0,9.1,2.3,9.1,6.3c0,3-1.9,5-4.3,6.3c3,0.5,6.3,2.2,6.3,6.2c0,4.8-4.4,7.9-11.9,7.9h-7.8V281.5z M577.4,289.2
				c0-2.8-1.5-4.5-6.1-4.5c-0.5,0-1.4,0-2.2,0.1v8.3c1,0,2,0.1,2.8,0.1C576.1,293.2,577.4,291.6,577.4,289.2z M579.2,300.9
				c0-3.1-2.5-4.8-6.8-4.8c-0.9,0-2.2,0.1-3.3,0.1v8.7c1.5,0.1,3.3,0.1,5,0.1C576.9,304.9,579.2,303.9,579.2,300.9z M598.3,308.3
				h-4.8v-26.8h4.8V308.3z M624.5,300.9H614l-2.6,7.3h-4.8l10.3-26.7l5-0.7l10.2,27.3h-5.1L624.5,300.9z M619.2,286l-4,11.4h8
				L619.2,286z"/>
		</g>
		<g>
			<g>
				<path class="st1" d="M277.8,183.4c0-9.9-4.7-18.3-12.3-22l-0.7-0.3l0.3,0.7c0.2,0.5,0.2,0.9,0.2,1.4c0,2.4-1.4,4.8-3,7.5
					c-2.4,4.1-5.5,9.1-5.5,17c0,11.3,6.6,22.7,16.1,27.5l0.6,0.3l-0.3-0.6c-0.5-1.2-0.8-2.7-0.8-4c0-4.4,1.2-8.8,2.5-13.4
					C276.5,192.9,277.8,188.2,277.8,183.4z M265.8,169.7c-1,4.3-2.1,11.5-2.2,15.2c-0.1,3.6,0.2,9.1,0.8,11.8l0.4,2l0.1-2
					c0.3-4.1,0.7-8.2,1-11.7c0.7-7.2,1.4-12.1,2.3-15.8c0.8,3.6,1,8.7,1,11c0,5.8-0.2,12.8-1.5,22.7l0,0c2.5-8.5,4.1-17.2,4.1-22.7
					c0-3.7-0.4-8.7-1-11.7c2.8,3.9,4.3,9.1,4.3,15c0,4.5-1.3,9-2.6,13.4c-1.3,4.4-2.6,9-2.6,13.7c-7-6.2-10.5-13.9-10.5-22.9
					C259.5,181.7,261.7,176.6,265.8,169.7z"/>
				<path class="st1" d="M223.6,145.9c0,3.3,1.9,6.4,3.7,7.9l0.4,0.3l0.1-0.5c0.5-3.2,5.7-7.5,12.4-8.5l0.1,0l0.1,0
					c5-3.9,7.2-10.9,7.2-16.2c0-7.2-3.5-12.1-6.9-16.8c-1.7-2.4-3.4-4.8-4.7-7.5c1,0.4,2.2,0.6,3.7,0.6c4.4,0,7.7-3.3,7.7-7.6
					c0-5.7-4.7-9.9-11.1-9.9c-8.1,0-16.2,7-16.2,22.7c0,3.9,0.7,17.3,9.6,27.7C225.9,139.1,223.6,142.2,223.6,145.9z M238.3,101.5
					c0.7-0.6,1-1.5,1-2.4c0-1.7-1.2-3.4-3.4-3.4c-2.1,0-3.6,1.7-3.6,4.1c0,4.4,2.8,8.4,5.7,12.7c3.4,4.9,6.9,10,6.9,16.4
					c0,3.1-0.9,7.4-2.9,10.3c0.5-11.2-2.8-16.7-6-22c-1.8-3-4.1-5.9-5.3-9.9l0,0c0.8,4.8,2.4,8.2,4,11.6c2.4,5.1,4.9,10.3,4.4,20.2
					c-12.5-21.2-12.7-32.5-11.4-40l0.3-2l-0.8,1.9c-4,8.9-0.7,23,9.7,42.1c-4-0.6-7.2,0.8-8.6,3.8l-0.4,1l0.8-0.7
					c2.1-1.6,4.9-2.1,7.3-1.3c-4.9,1.2-7.2,3.3-9.1,6.1c-0.7-1-1.1-2.5-1.1-4.1c0-3.4,2.4-5.7,6.7-6.7l0.4-0.1l-0.3-0.3
					c-8.7-10.4-10.5-21.2-10.5-28.4c0-14,7.2-20.3,13.9-20.3c5.2,0,8.5,3,8.5,7.6c0,3.1-2.3,5.5-5.1,5.5c-1.7,0-3-0.2-3.8-0.7
					C237,102.3,237.8,101.9,238.3,101.5z"/>
				<path class="st1" d="M256.1,154.7h0.1c3.8,0,7.5,2.6,11.3,5.3c4.3,3.1,8.8,6.3,14.2,6.3c5.6,0,9.8-3.8,9.8-8.8
					c0-5.3-4.1-8.5-8-8.5c-2.6,0-4.4,1.3-4.8,3.4c-1.1-1.1-2.3-2.2-4.1-3c5.7-3.3,8.9-9.9,7.9-16.1l0-0.1l-0.1-0.1
					c-0.6-0.3-2.4-0.8-5.5-0.8c-3.2,0-6.8,1.2-9.3,3c-0.1-4-1.1-6.6-2.1-8.8c-0.8-2-1.6-3.9-1.6-6.6c0-1.3,0.2-2.8,0.6-4.3l0.1-0.3
					l-0.3,0c-7.3,0.1-14.9,7.9-14.9,20.6C249.2,142.5,252,150,256.1,154.7L256.1,154.7z M260.8,118.2c0.1,0,0.2-0.1,0.2-0.1
					c0.2-0.1,0.5-0.2,0.7-0.2c-0.2,0.7-0.3,1.7-0.3,2.6c0,2.2,0.7,4.1,1.5,6.1c1,2.4,2.1,5.2,2.1,9.2c0,2.4-0.2,4-0.6,5.3l-0.5,1.6
					l1-1.4c3.3-4.5,7.4-6.8,12.1-6.8c1.2,0,2.1,0.1,3.1,0.3c0.2,4.9-2.5,11.2-10.7,14.6l-0.9,0.4l0.9,0.1c4.6,0.7,6.6,2.7,8.2,4.2
					c1.2,1.2,2.2,2.2,4,2.2c1.8,0,3.1-1.3,3.1-3.1c0-0.8-0.3-1.4-0.9-1.9c-0.1-0.1-0.3-0.2-0.4-0.3c3.4,0,5.4,3.2,5.4,6.3
					c0,3.7-3,6.4-7.2,6.4c-4.4,0-8.7-2.9-12.8-5.8c-2-1.4-4.2-2.8-6.3-3.9c2,0,5.4,0.2,8.4,2.1l0.6,0.4c5.5,3.5,10.3,6.6,13.8,2.3
					l1.4-1.7l-1.8,1.3c-3,2.3-5.9,0.3-10.4-2.6c-0.9-0.6-1.7-1.1-2.7-1.7c-2.8-1.8-6.9-2-9.1-2.1c4.3-2.4,8.8-5.8,11-8.5l1-1.2
					l-1.4,0.8c-1,0.6-2,1.2-3,1.9c-2.8,1.8-5.7,3.6-8.8,5.2c3.1-4.3,8.6-9,14.5-12.7l1.6-1l-1.8,0.5c-5.6,1.6-11.9,7-16.1,11.9
					c0.9-3.6,2.3-10.8,1.7-17.2l-0.2-2.2l-0.3,2.2c-0.8,5.6-2.1,11.5-3.5,16.5c-1.4-8.6-0.9-16.9,1.3-25.3l0.4-1.6l-0.9,1.4
					c-3.6,5.5-4.6,13.8-3.3,25.9c-1.7-3-3.3-8.4-3.3-12.9C251.7,127,255,120.6,260.8,118.2z"/>
				<path class="st1" d="M176,155.4c1,0,1.9-0.9,2.7-2.7l0.4-0.8l-0.8,0.5c-0.2,0.1-0.4,0.2-0.5,0.3c0.2-0.3,0.4-0.6,0.6-1l0.4-0.7
					l-0.7,0.4c-2.2,1.1-3.1,2-3.1,3.2C174.9,155,175.2,155.4,176,155.4z"/>
				<path class="st1" d="M288.4,212.2c-1.8-1.7-3.9-2.5-6.2-2.4c-3.2,0.1-5.3,2-5.3,4.8c0,2.2,1.6,3.9,3.6,3.9c0.4,0,0.7,0,1-0.1
					c-1.2,1.4-3.5,1.5-4.5,1.5c-6.4,0-12.6-4.4-15.7-11.2l-0.3-0.7l-0.2,0.8c-0.5,2.4-0.8,5-0.8,8c0,6.3,1.8,11.6,5.3,15.2
					c3.1,3.3,7.4,5.1,12,5.1c8.7,0,14.9-6.3,14.9-14.9C292.3,218.2,290.9,214.5,288.4,212.2z M277.2,229.9c4.4,0,8-2.8,9.4-7.4
					l0.7-2.3l-1.2,2.1c-2,3.5-4.7,5-8.9,5c-5.3,0-10.7-4.3-12.9-10.2c3.2,2.8,7,5.3,12.8,5.3c4.7,0,8-2.7,8-6.6
					c0-2.1-1.3-3.7-3.1-3.8c0.1,0,0.2,0,0.3,0c4.2,0,7.5,4.5,7.5,10.2c0,7-5.3,12.4-12.4,12.4c-7.8,0-13.2-5.3-14.7-14.4
					C265.9,226.3,271.2,229.9,277.2,229.9z"/>
				<path class="st1" d="M171.4,235.3c2.6-1.9,2-3.8,1.1-5.5l-3.5-7.6H168l2.7,7.7c-0.1,0.3-0.2,0.6-0.3,1c-0.3,0.7-0.6,1.6-0.4,2.4
					c-1-0.3-2,0-2.9,0.3c-0.6,0.2-1.2,0.4-1.8,0.4h-0.6l0.4,0.4c1.2,1.3,2.2,2,3.4,2C169.4,236.5,170.3,236.1,171.4,235.3z"/>
				<path class="st1" d="M166,232.3c0.4,0.3,0.9,0.4,1.4,0.4c0.3,0,0.6-0.1,0.9-0.2l0,0c0.7-0.3,1.4-0.8,1.4-1.8
					c0-2-1.9-3.5-3.6-4.3v-8.8h-0.9l0,0.2c-0.3,4.6-0.4,7.2-0.5,8.8c-0.1,1.5-0.1,2.1-0.1,2.6C164.5,230.5,165.1,231.7,166,232.3z"
					/>
				<path class="st1" d="M181.6,227.4c2.8,0,5.4-1.8,6-4l4.9-7.3h-1.1l-5.2,6.7c-0.3,0.1-0.6,0.2-0.9,0.4c-1.5,0.6-3,1.2-3.7,2.1
					c-0.6-0.9-2.2-1.5-3.6-2.1c-0.3-0.1-0.7-0.3-1-0.4l-5.2-6.7h-1.1l4.9,7.1C176.2,225.7,178.7,227.4,181.6,227.4z"/>
				<path class="st1" d="M175,237.9L175,237.9c1.1-1.3,1.7-2.5,1.6-3.7c-0.1-1-0.6-2-1.6-2.9l-0.4-0.4v0.6c0,0.5-0.4,1.2-0.7,1.9
					c-0.5,0.9-1,1.9-0.8,2.7c-0.9-0.1-1.8,0.4-2.6,0.9c-0.7,0.4-1.3,0.8-1.8,0.8h-0.5l0.3,0.4c0.9,1.2,1.8,1.8,2.9,1.8
					c0,0,0.1,0,0.1,0C172.6,239.9,173.8,239.2,175,237.9z M173.8,236.7L173.8,236.7L173.8,236.7L173.8,236.7z"/>
				<path class="st1" d="M181.6,223.3c2.5,0,4.9-1.6,5.8-3.8l3.5-6.6h-1.1l-3.4,5.5c-0.3,0.1-0.6,0.3-1,0.4
					c-1.5,0.6-3.1,1.2-3.9,2.3c-0.7-1.1-2.3-1.7-3.8-2.3c-0.4-0.1-0.7-0.3-1-0.4l-3.6-5.5H172l3.8,6.5
					C176.4,221.7,178.8,223.3,181.6,223.3z"/>
				<path class="st1" d="M233.3,242c-1.1,0-2.2,0.3-3.4,0.6c-1.3,0.3-2.6,0.7-4,0.7c-5.7,0-9.5-2.3-12.4-7.3l-0.1-0.1h-3.1l-2.2,3.1
					l0.1,0.1c0.8,1.4,1,2.6,1,3.5c0,1.3-0.5,2.5-1.1,4c-1,2.5-2.2,5.6-2.2,10.7c0,5.5,1.9,9.2,3.4,12.1c1.1,2.1,2,3.8,2,5.7
					c0,0.7-0.4,1.4-1.2,1.8l-0.2,0.1l1.2,2.9h5.2l20.2-31.6c0.3-0.5,0.8-1.6,0.8-2.7C237.1,243.6,235.4,242,233.3,242z M228.1,246.4
					v7.5l-1.7,2.4v-9.7C227,246.6,227.6,246.5,228.1,246.4z M229.9,246c0.4-0.1,0.8-0.3,1.1-0.4c0.4-0.2,0.7-0.3,0.9-0.3
					c0.3,0,0.6,0.2,0.8,0.5c0.2,0.4,0.2,0.8,0,1.1l-2.9,4.2V246z M224.6,246.7v12.4l-1.7,2.4v-14.9
					C223.6,246.7,224.1,246.7,224.6,246.7z M221.2,246.3v17.9l-1.8,2.7v-21.2c0.1,0,0.2,0.1,0.4,0.1
					C220.1,246,220.6,246.1,221.2,246.3z M209.6,256.6c0-4.4,0.9-7,1.7-9.5c0.7-1.9,1.3-3.7,1.4-6.1l1.3,1.3V271
					c-0.4-1-0.8-1.9-1.3-2.9C211.2,265.2,209.6,262,209.6,256.6z M217.6,244.8v24.7l-1.8,2.7v-28.5
					C216.4,244.2,217.1,244.6,217.6,244.8z"/>
				<path class="st1" d="M181.6,215.7c1.1,0,2.2-1.2,2.2-2.3c0-1-0.3-1.7-0.8-2.6c-0.2-0.4-0.4-0.8-0.6-1.3l-0.3-5.1h-1l-0.3,5.1
					c-0.2,0.5-0.4,0.9-0.6,1.3c-0.5,1-0.8,1.6-0.8,2.6C179.4,214.5,180.5,215.7,181.6,215.7z"/>
				<path class="st1" d="M181.6,219.2c2.7,0,4.1-1.9,5-3.8l2.2-6.3h-0.9l-2.5,5.2c-0.2,0.1-0.5,0.2-0.7,0.3
					c-1.1,0.5-2.5,1.1-3.1,2.2c-0.6-1.1-2.1-1.7-3.5-2.3c-0.2-0.1-0.4-0.2-0.5-0.2l-2.2-5.2h-0.9l2.2,6.3
					C177.1,217.2,178.7,219.2,181.6,219.2z"/>
				<path class="st1" d="M188.9,239.7c-0.8-0.6-1.6-1.3-2.6-1.1c0.3-1,0-2-0.3-2.9c-0.2-0.7-0.5-1.4-0.4-2.1l0.1-0.5l-0.5,0.3
					c-1,0.6-1.8,1.8-2,3.1c-0.1,1,0.1,2,0.7,2.7l-1.4,1.1v-7.7c2.6-0.3,5.4-2.1,5.9-5l5.7-8.3H193l-6,7.5c-0.3,0.1-0.7,0.3-1.1,0.4
					c-1.7,0.6-3.6,1.2-4.2,2.3c-0.7-1.1-2.6-1.7-4.2-2.3c-0.4-0.1-0.8-0.3-1.1-0.4l-6-7.5h-1.1l5.7,8.3c0.6,2.9,3.3,4.7,5.9,5v7.7
					l-1.4-1.1c0.6-0.7,0.8-1.7,0.7-2.7c-0.2-1.3-0.9-2.5-2-3.1l-0.5-0.3l0.1,0.5c0.1,0.6-0.1,1.3-0.4,2.1c-0.3,0.9-0.6,1.9-0.3,2.9
					c-1-0.3-2,0.5-2.8,1.2c-0.5,0.4-1,0.8-1.5,1l-0.5,0.2l0.4,0.3c2,1.5,3.9,1.3,5.8-0.6l1.6,1.2l-5.3,4l2.2,0.7l3.8-2.9v4.3
					l0.9,0.4l0.9-0.4v-4.3l4.1,2.9l2.2-0.7l-5.5-4l1.6-1.2c2,1.9,3.9,2.1,5.8,0.6l0.4-0.3l-0.5-0.1
					C190,240.6,189.4,240.2,188.9,239.7z M181.6,230.2L181.6,230.2L181.6,230.2L181.6,230.2z"/>
				<path class="st1" d="M259.7,324.1c-1.7,0-3.4,0.3-5.1,1c-2.6-2.9-6-4.6-9.5-4.6c-4.5,0-7.2,2.3-7.2,5.9c0,1.5,0.5,2.8,1.3,3.8
					c-1.8-0.8-3.5-1.6-5.3-2.4c-1.4-0.6-2.9-1.3-4.6-2.1c-6.8-3.1-30.2-13-46.8-13.3c8.5-4.4,17-7.3,25.2-10.1
					c7.8-2.6,15.2-5.1,21.8-8.8c8.8-5.2,15-11.7,19.4-20.6c5.3-10.6,8-24.7,8.5-43.1l0-0.3h-0.3c-6.1,0-9-2-9-6.2
					c0-3.7,1.5-5.9,8.7-5.9h0.3v-0.3c0-5.6-0.9-10.1-1.7-14.5c-0.8-4.3-1.7-8.7-1.7-14.1c0-4.7,1.1-14.2,8.4-24.1l0.1-0.1l-3-5.8
					l-0.2,0.1c-2.9,1-6,0.3-8.1-1.7c-1.8-1.8-2.4-4.7-1.6-7.7l0.1-0.2l-6-3.3l-0.1,0.1c-9.6,9.1-20.1,13.8-30.5,13.8
					c-5.2,0-13.2-1-21.5-5.6l-0.2-0.1l-9.5,13l-9.5-13l-0.2,0.1c-8.3,4.7-16.3,5.6-21.5,5.6c-10.5,0-20.7-4.7-30.5-13.8l-0.1-0.1
					l-6,3.3l0.1,0.2c0.8,3,0.2,5.9-1.6,7.7c-2.1,2.1-5.2,2.7-8.1,1.7l-0.2-0.1l-3,5.8l0.1,0.1c7.3,9.9,8.4,19.3,8.4,24.1
					c0,5.4-0.8,9.8-1.7,14.1c-0.8,4.4-1.7,8.9-1.7,14.5v0.3h0.3c7.3,0,8.8,2.3,8.8,5.9c0,4.2-2.9,6.2-9,6.2h-0.3l0,0.3
					c0.5,18.4,3.3,32.5,8.5,43.1c4.4,8.9,10.6,15.4,19.4,20.6c6.6,3.6,14,6.1,21.8,8.8c8.2,2.8,16.6,5.6,25.2,10.1
					c-16.6,0.3-40,10.2-46.8,13.3c-1.7,0.7-3.1,1.4-4.5,2c-1.9,0.8-3.5,1.6-5.4,2.4c0.8-1,1.3-2.3,1.3-3.8c0-3.7-2.8-5.9-7.2-5.9
					c-3.5,0-6.9,1.7-9.5,4.6c-1.2-0.5-3-1-5.1-1c-5.1,0-8.2,2.7-8.2,7.1v12.2c0,6.9,5.1,10.8,13.9,10.8c8,0,16.1-3.4,28.8-9
					c15.6-6.9,27.9-12.3,43.5-12.3s28,5.4,43.5,12.3c12.7,5.6,20.8,9,28.8,9c8.8,0,13.9-3.9,13.9-10.8v-12.2
					C267.9,326.8,264.8,324.1,259.7,324.1z M110.4,203.2c0.8-5.2,1.7-10.5,1.7-14.9c0-7.6-3.1-16.6-8.2-24l1.4-2.8
					c3.2,0.6,6.4-0.4,8.7-2.7c2-2,3-5.1,2.7-8.3l2.9-1.5c9.8,8.9,20.2,13.5,30.9,13.5c7.3,0,14.7-1.7,21-4.8l8.6,12.1v31.7
					c-3.4,2.5-8.7,4-13.9,4c-1.1,0-2.3-0.1-3.3-0.3l-0.1,0l-3.3,4l0.1,0.1c0.9,2.2,1.3,4.5,1.3,7.5c0,2-0.2,3.7-0.5,5.4h-42.4
					c-0.4-4.1-3.5-6.6-8.9-7.2C109,211.9,109.7,207.7,110.4,203.2z M246.6,150.6c-0.3,3.2,0.7,6.3,2.7,8.3c2.3,2.3,5.5,3.3,8.7,2.7
					l1.4,2.8c-5.1,7.4-8.2,16.4-8.2,24c0,4.4,0.8,9.7,1.7,14.9c0.7,4.5,1.4,8.8,1.4,11.9c-5.4,0.6-8.5,3.1-8.9,7.2H203
					c-0.2-1.7-0.5-3.4-0.5-5.4c0-3,0.4-5.3,1.3-7.5l0.1-0.1l-3.3-4l-0.1,0c-1,0.1-2.1,0.3-3.3,0.3c-5.2,0-10.6-1.5-13.9-4v-31.7
					l8.6-12.1c6.3,3.1,13.8,4.8,21,4.8c10.7,0,21.1-4.5,30.9-13.5L246.6,150.6z M204.1,300.9c-7.1,2.4-14.4,4.8-20.9,8v-56.8
					c17.2-5.9,20.5-12.6,20.5-23.1c0-1.3-0.2-2.6-0.3-3.6c0-0.2,0-0.4-0.1-0.5h42.1c0.3,3,2.1,6.6,9.1,7.2
					c-0.7,30.3-9.4,49.7-26.6,59.4C220.8,295.4,212.3,298.2,204.1,300.9z M199.4,207.9l1.5,1.8l-0.1,0.4c-0.5,2.1-0.9,4.1-0.9,6.7
					c0,1.9,0.3,4.1,0.5,6.3c0.2,2,0.5,3.9,0.5,5.3c0,10-2.9,15.7-19.3,21.1c-16.4-5.4-19.3-11.1-19.3-21.1c0-1.5,0.2-3.3,0.5-5.3
					c0.3-2.1,0.5-4.4,0.5-6.3c0-2.6-0.4-4.6-0.9-6.7l-0.1-0.4l1.5-1.8l0.1,0c0.7,0.1,1.2,0.2,1.9,0.2c6.3,0,11.4-1.4,15.7-4.3
					c4.3,2.9,9.5,4.3,15.7,4.3c0.7,0,1.3-0.1,2-0.2L199.4,207.9z M117.9,224.8H160c0,0.2,0,0.4-0.1,0.5c-0.1,1-0.3,2.3-0.3,3.6
					c0,10.5,3.3,17.2,20.5,23.1v56.8c-6.4-3.2-13.8-5.6-20.9-8c-8.2-2.7-16.7-5.5-23.8-9.5c-17.2-9.7-25.9-29.1-26.6-59.4
					C115.7,231.4,117.6,227.8,117.9,224.8z M107.7,334.4c-4.6,0-9.3-1.8-9.3-4.8c0-1.6,1.7-3.2,4.9-3.2c2.4,0,5,1.2,8.1,2.9
					c2.4,1.3,5.3,2.7,8.2,2.7C115.7,333.5,111.1,334.4,107.7,334.4z M110.9,326.2c1.6-2,4.6-3.4,7.2-3.4c2.7,0,4.6,1.5,4.6,3.6
					c0,2-1.1,3.2-3,3.2C117,329.6,113.6,327.7,110.9,326.2z M181.6,315.1c13,0,33.2,7.1,46.6,13.1c11,5,19.4,8.5,27.3,8.5
					c5.6,0,8.1-1.4,9.8-2.9v9.6c0,5.2-4.1,8.2-11.3,8.2c-7.3,0-15.7-3.5-27.8-8.9c-17-7.6-29.2-12.5-44.5-12.5s-27.6,5-44.5,12.5
					c-12.5,5.5-20.6,8.9-27.8,8.9c-7.2,0-11.3-3-11.3-8.2v-9.6c1.6,1.5,4.2,2.9,9.8,2.9c7.8,0,16.2-3.5,27.3-8.5
					C148.4,322.2,168.7,315.1,181.6,315.1z M243.6,332.1c2.9,0,5.9-1.4,8.2-2.7c3.1-1.8,5.7-2.9,8.1-2.9c3.2,0,4.9,1.7,4.9,3.2
					c0,3-4.7,4.8-9.3,4.8C252.1,334.4,247.5,333.5,243.6,332.1z M240.5,326.4c0-2.1,1.9-3.6,4.6-3.6c2.6,0,5.6,1.4,7.2,3.4
					c-2.6,1.5-6.1,3.4-8.9,3.4C241.6,329.6,240.5,328.4,240.5,326.4z"/>
				<path class="st1" d="M247.3,313c0,2,1.6,3.4,4,3.4c2.6,0,5.2-1.9,5.2-5.5c0-7.6-8.4-14-18.3-14c-6.5,0-12.6,2.4-20.3,5.5
					c-4.8,1.9-10.2,4.1-16.7,6.1l-0.5,0.1l0.4,0.3c7.5,6.2,15.2,9.3,22.8,9.3c7.3,0,13.1-2.9,17.7-5.3c2.9-1.5,5.4-2.7,7.3-2.7
					C247.9,310.7,247.3,311.8,247.3,313z M238.8,307.5L238.8,307.5c-5,2.1-12.8,3.1-17.9,3.1c-1.2,0-4.7-0.1-7.4-0.2
					c5.7-0.7,10.6-2,14.9-3.3c6.4-1.8,12-3.3,18.2-2.4l2.1,0.3l-1.9-0.8c-1.8-0.8-5-1.3-7.8-1.3c-4.2,0-9,1.2-14.1,2.4
					c-4.8,1.2-9.8,2.4-14.6,2.7c2.5-0.9,5.2-2,8-3.1c7-2.9,14.2-5.8,20-5.8c6.3,0,15.7,3.8,15.7,11.8c0,0,0,0.1,0,0.1
					c-0.7-2.1-2.6-3.2-5.7-3.2c-2.4,0-5.3,1.4-8.5,3c-4.5,2.3-9.7,4.8-15.8,4.8c-4,0-8.1-0.9-12.4-2.8
					C219.8,313.2,229,312.9,238.8,307.5z"/>
				<path class="st1" d="M192.8,237.2c-0.8-0.5-1.8-1.1-2.6-0.9c0.2-0.9-0.3-1.8-0.7-2.7c-0.4-0.7-0.7-1.4-0.7-2v-0.6l-0.4,0.4
					c-2.2,2.2-2.2,4.4,0,6.8l0,0c1.2,1.3,2.4,2,3.5,2c0,0,0,0,0,0c1.1,0,2.1-0.6,3-1.7l0.4-0.4h-0.6
					C194.1,238,193.5,237.6,192.8,237.2z M189.5,236.9L189.5,236.9L189.5,236.9L189.5,236.9z"/>
				<path class="st1" d="M256.1,262.6l-0.3-0.2l-0.1,0.3c-0.8,2.4-1.4,5-2,7.5c-2.2,8.9-4.3,17.3-13.4,19.7l-0.3,0.1l0.1,0.3
					c1.7,4,6.6,5.8,10.4,5.8c4.2,0,8.4-2.1,10.2-5.2c0.4,1.9,1.2,3.8,1.9,5.6c0.8,2,1.5,3.8,1.5,5.1c0,0.6,0,1-0.2,1.4
					c-0.5-1.1-1.6-2-3.4-2c-1.8,0-3.9,1.6-3.9,3.9c0,3.2,2.6,5.4,6.4,5.4c6.5,0,13.1-5.5,13.1-17.8
					C276.3,281.5,270.2,272.5,256.1,262.6z M260.8,278v0.6c0.1,5.6-1.1,9.7-3.6,12.2c-1.7,1.7-4,2.6-6.7,2.6c-2.6,0-5.1-1.2-6.3-2.2
					c5.9-2.5,9.7-8.7,12-20.2c1.3,7.1-1.8,16.1-5.6,19.4l-1,0.9l1.2-0.4c5.7-1.9,8.7-11.7,8.3-20.1c5.6,8,8.9,19,10.1,26.7l0.3,2.2
					l0.2-2.2c0.7-8.6-2-17.9-7.8-27.1c7.2,5.7,11.6,14,11.6,22.1c0,6.8-2.5,12.2-6.7,14.4c-1.7,0.9-3.6,1.2-5.2,0.7
					c1,0,1.9-0.3,2.6-0.9c1.4-1,2.2-2.9,2.2-5c0-2-0.8-3.9-1.7-6.3c-1.4-3.6-3.8-7.5-4-15.8L260.8,278L260.8,278z"/>
				<path class="st1" d="M132.1,255.1c0-4,1.5-5.6,5.3-5.7c0,0.6,0,1.2,0,1.7c0,3.8,0,7.1-0.5,10.6c-0.6,4.1-2.3,5.3-4.8,7.2
					l-0.4,0.3l3.3,3.6l0.2-0.2c3.7-3.2,5.4-6.1,6-10.3c0.5-3.8,0.5-7.2,0.5-11.1c0-0.6,0-1.2,0-1.8h7.4c-0.5,8.7-0.5,10.3-0.5,14.9
					c0,5.1,2.3,7.7,6.7,7.7c2.1,0,3.4-0.6,4.1-1.1l0.1-0.1v-4l-0.4,0.2c-0.9,0.4-1.5,0.6-2.7,0.6c-1.6,0-3.5-0.5-3.5-4.4
					c0-0.7,0-1.2,0-1.8c0-2.5,0-4.5,0.4-12.1h5.8v-4.1H138c-6.6,0-9.7,2.6-10.4,8.7l0,0.2l4.5,1.2V255.1z"/>
				<path class="st1" d="M195.9,233.9c-0.9-0.3-1.8-0.7-2.7-0.4c0.3-0.9,0-1.7-0.3-2.6c-0.1-0.3-0.2-0.6-0.3-0.9l2.7-7.5h-0.9
					l-3.5,7.6c-1.3,1.9-1,3.8,0.6,5l0,0l0.1,0.1c0.1,0,0.1,0.1,0.2,0.1l0,0c1.2,0.8,2.3,1.2,3.2,1.2c1.3,0,2.3-0.7,3.3-1.7l0.4-0.4
					H198C197.2,234.4,196.6,234.1,195.9,233.9z"/>
				<path class="st1" d="M197.2,226.5c-1.2,0.7-3.6,2.4-3.6,4.3c0,0.9,0.6,1.8,1.5,2.1c0.2,0.1,0.5,0.1,0.7,0.1c0.5,0,1-0.2,1.5-0.5
					c0.9-0.7,1.5-1.9,1.5-3.2c0-0.5,0-1.1-0.1-2.7c-0.1-1.5-0.3-4-0.5-8.4l0-0.2h-0.9V226.5z"/>
				<path class="st1" d="M276.7,244.3c-2.3-2.2-4.7-3.8-6.8-5.2c-3.1-2-5.7-3.8-7.3-6.6l-0.3-0.4l-0.2,0.5c-1.6,3.5-2.6,10-2.6,14.3
					c0,10.4,4.2,16,8.6,20.8l0.6,0.7c3.1,3.6,6.7,7.7,9.1,14.8l0.1,0.3l0.3-0.1c4.5-2.4,7.6-9.3,7.6-16.8
					C285.8,257.6,282.7,250,276.7,244.3z M275.2,266.6c-0.4-0.9-0.9-1.8-1.3-2.6c-3.6-7.1-7-13.8-8.8-21.9
					c7.6,8.4,12.4,17.5,14.5,29.8l0,0c-0.3-15.2-6.1-24.3-12.1-31.2c10.1,5.9,15.7,15,15.7,25.8c0,7.2-2.8,11.4-4.1,12.9
					c-2.3-4.7-5.6-9.5-9.1-13.3l-0.3-0.4c-3.8-4.8-7.4-9.3-7.4-18.8c0-1.3,0-2.1,0.1-3.7c2.2,8.8,6.6,17.2,12.3,23.7l1.3,1.5
					L275.2,266.6z"/>
				<path class="st1" d="M97.8,232c3.5-3.7,5.3-8.9,5.3-15.2c0-3.1-0.3-5.7-0.8-8l-0.2-0.8l-0.3,0.7c-3.2,6.8-9.3,11.2-15.7,11.2
					c-1,0-3.3-0.2-4.5-1.5c0.3,0.1,0.6,0.1,1,0.1c2,0,3.6-1.7,3.6-3.9c0-2.8-2.1-4.6-5.3-4.8c-2.3-0.1-4.4,0.7-6.2,2.4
					c-2.4,2.3-3.9,6-3.9,9.9c0,8.7,6.3,14.9,14.9,14.9C90.4,237.1,94.7,235.3,97.8,232z M78.1,215.8c0,3.9,3.3,6.6,8,6.6
					c5.8,0,9.6-2.5,12.8-5.3c-2.3,5.9-7.7,10.2-12.9,10.2c-4.2,0-6.9-1.5-8.9-5l-1.2-2.1l0.7,2.3c1.4,4.6,5,7.4,9.4,7.4
					c6,0,11.3-3.5,14.6-9.8c-1.5,9-7,14.4-14.7,14.4c-7,0-12.4-5.3-12.4-12.4c0-5.7,3.3-10.2,7.5-10.2c0.1,0,0.2,0,0.3,0
					C79.4,212.1,78.1,213.7,78.1,215.8z"/>
				<path class="st1" d="M106.4,304.8c0-2.3-2-3.9-3.9-3.9c-1.9,0-3,1-3.4,2c-0.2-0.3-0.2-0.7-0.2-1.4c0-1.3,0.7-3.1,1.5-5.1
					c0.7-1.7,1.5-3.6,1.9-5.6c1.8,3,5.9,5.2,10.2,5.2c3.8,0,8.7-1.8,10.4-5.8l0.1-0.3l-0.3-0.1c-9.1-2.4-11.2-10.8-13.4-19.7
					c-0.6-2.5-1.2-5-2-7.5l-0.1-0.3l-0.3,0.2c-14.2,9.9-20.2,18.9-20.2,29.8c0,12.3,6.6,17.8,13.1,17.8
					C103.8,310.2,106.4,308,106.4,304.8z M101,270.3c-5.8,9.2-8.5,18.6-7.8,27.1l0.2,2.2l0.3-2.2c1.2-7.8,4.5-18.7,10.1-26.7
					c-0.4,8.4,2.6,18.2,8.3,20.1l1.2,0.4l-1-0.9c-3.8-3.3-6.9-12.2-5.6-19.4c2.4,11.5,6.1,17.7,12,20.2c-1.2,1-3.7,2.2-6.3,2.2
					c-2.7,0-5-0.9-6.7-2.6c-2.4-2.4-3.6-6.4-3.6-11.8c0-0.3,0-0.7,0-1l-0.5,0c0,0.3,0,0.7,0,1c-0.2,8.1-2.1,12.9-3.5,16.4
					c-1,2.3-1.7,4.2-1.7,6.3c0,2.1,0.8,4,2.2,5c0.8,0.6,1.7,0.9,2.6,0.9c-1.6,0.5-3.4,0.2-5.2-0.7c-4.2-2.3-6.7-7.7-6.7-14.4
					C89.4,284.4,93.9,276,101,270.3z"/>
				<path class="st1" d="M190,335.7c-3,0-5.5,0.8-8.5,2.5c-2.6-1.6-4.9-2.5-8.2-2.5c-6.3,0-10.6,3-10.6,7.5c0,3.5,3,5.7,5.9,5.7
					c2.7,0,4.4-1.3,4.4-3.4c0-1.6-1-2.6-2.6-2.6c-0.8,0-1.6,0.5-2.1,1.2c-0.4,0.7-0.5,1.5-0.1,2.3c-1.7-0.2-2.9-1.6-2.9-3.4
					c0-3,2.9-5,7.5-5c2.9,0,5.5,0.9,6.8,1.8c-2.1,2.2-4.2,4.8-4.2,8.2c0,4.2,3.1,6.7,6.2,6.7c3,0,6.2-2.5,6.2-6.7
					c0-3.4-2.1-6-4.2-8.2c1.4-0.9,4.2-1.8,7.1-1.8c4.3,0,7.2,2,7.2,5c0,1.9-1.2,3.2-2.9,3.4c0.3-0.8,0.3-1.6-0.1-2.3
					c-0.4-0.8-1.2-1.2-2.1-1.2c-1.6,0-2.6,1-2.6,2.6c0,2.1,1.7,3.4,4.4,3.4c2.9,0,5.9-2.1,5.9-5.7
					C200.3,338.8,196.1,335.7,190,335.7z M181.5,341.5c2.4,2.2,3.6,4.3,3.6,6.6c0,2.8-1.8,4.1-3.6,4.1c-1.8,0-3.6-1.3-3.6-4.1
					C177.9,345.8,179.1,343.6,181.5,341.5z"/>
				<path class="st1" d="M139.3,318.2c7.7,0,15.3-3.1,22.8-9.3l0.4-0.3l-0.5-0.1c-6.5-1.9-11.9-4.1-16.7-6.1
					c-7.7-3.1-13.8-5.5-20.3-5.5c-9.9,0-18.3,6.4-18.3,14c0,3.6,2.6,5.5,5.2,5.5c2.4,0,4-1.4,4-3.4c0-1.3-0.6-2.3-1.6-2.8
					c1.9,0,4.4,1.2,7.3,2.7C126.2,315.3,132,318.2,139.3,318.2z M138.3,305.4c-5.1-1.2-9.9-2.4-14.1-2.4c-2.9,0-6,0.5-7.8,1.3
					l-1.9,0.8l2.1-0.3c6.2-1,11.7,0.6,18.2,2.4c4.4,1.2,9.3,2.6,14.9,3.3c-2.7,0.1-6.2,0.2-7.4,0.2c-5.1,0-13.1-0.5-18.2-2.6l0,0
					c9.9,5.4,19.2,5.2,27.5,5c-4.3,1.9-8.3,2.8-12.4,2.8c-6.1,0-11.3-2.6-15.8-4.8c-3.3-1.6-6.1-3-8.5-3c-3.1,0-5,1.1-5.7,3.2
					c0,0,0-0.1,0-0.1c0-8.1,9.4-11.8,15.7-11.8c5.8,0,13,3,20,5.8c2.8,1.2,5.5,2.3,8,3.1C148.1,307.8,143.2,306.6,138.3,305.4z"/>
				<path class="st1" d="M95,267.6c4.3-4.8,8.6-10.4,8.6-20.8c0-4.3-1-10.8-2.6-14.3l-0.2-0.5l-0.3,0.4c-1.6,2.8-4.3,4.6-7.3,6.6
					c-2.1,1.4-4.5,3-6.8,5.2c-5.9,5.6-9.1,13.3-9.1,22.1c0,7.5,3.1,14.5,7.6,16.8l0.3,0.1l0.1-0.3c2.4-7.1,5.9-11.1,9.1-14.7
					L95,267.6z M88.3,266.9c5.7-6.5,10.1-14.9,12.3-23.7c0.1,1.7,0.1,2.4,0.1,3.7c0,9.5-3.6,14-7.4,18.8l-0.3,0.3
					c-3.6,3.9-6.9,8.7-9.1,13.4c-1.2-1.5-4.1-5.7-4.1-12.9c0-10.8,5.5-19.9,15.7-25.8c-6,6.9-11.8,16-12.1,31.2l0,0
					c2.1-12.2,6.9-21.4,14.5-29.8c-1.8,8-5.2,14.7-8.7,21.8c-0.4,0.9-0.9,1.8-1.3,2.7l-0.9,1.8L88.3,266.9z"/>
				<path class="st1" d="M89.4,215.5l0.6-0.3c9.5-4.9,16.1-16.2,16.1-27.5c0-7.9-3-12.9-5.5-17c-1.6-2.7-3-5.1-3-7.5
					c0-0.5,0-1,0.2-1.4l0.3-0.7l-0.7,0.3c-7.6,3.7-12.2,12.1-12.2,22c0,4.8,1.3,9.5,2.6,14.1c1.3,4.6,2.5,8.9,2.5,13.4
					c0,1.3-0.3,2.8-0.8,4L89.4,215.5z M91.2,180.1c0,5.5,1.6,14.2,4.1,22.7l0,0c-1.3-9.9-1.5-16.9-1.5-22.7c0-2.4,0.2-7.5,1-11
					c0.9,3.7,1.6,8.7,2.3,15.8v0c0.4,3.5,0.8,7.6,1,11.7l0.1,2l0.4-1.9c0.5-2.7,0.9-8.2,0.8-11.8c-0.1-3.7-1.2-10.9-2.2-15.2
					c4.1,7,6.3,12.1,6.3,17.9c0,9-3.5,16.6-10.5,22.9c0-4.7-1.3-9.3-2.6-13.7c-1.3-4.3-2.6-8.8-2.6-13.4c0-5.9,1.5-11,4.3-15
					C91.6,171.4,91.2,176.5,91.2,180.1z"/>
				<path class="st1" d="M115.7,128.9c0,5.3,2.2,12.3,7.2,16.2l0.1,0l0.1,0c6.7,1,11.9,5.3,12.4,8.5l0.1,0.5l0.4-0.3
					c1.8-1.5,3.7-4.7,3.7-7.9c0-3.7-2.3-6.8-6-7.9c8.9-10.4,9.6-23.8,9.6-27.7c0-15.7-8.2-22.7-16.2-22.7c-6.4,0-11.1,4.2-11.1,9.9
					c0,4.3,3.3,7.6,7.7,7.6c1.5,0,2.7-0.2,3.7-0.6c-1.3,2.7-3,5.1-4.7,7.5C119.2,116.8,115.7,121.7,115.7,128.9z M130.5,139.2
					c4.4,1,6.8,3.3,6.8,6.7c0,1.6-0.4,3.1-1.1,4.1c-1.8-2.7-4.1-4.8-9.1-6.1c2.5-0.8,5.2-0.3,7.3,1.3l0.8,0.7l-0.4-1
					c-1.4-3-4.6-4.4-8.6-3.8c10.4-19.1,13.6-33.3,9.7-42.1l-0.8-1.9l0.3,2c1.3,7.5,1.1,18.9-11.4,40c-0.5-9.9,2-15.1,4.4-20.2
					c1.6-3.4,3.3-6.8,4-11.6l0,0c-1.2,4-3.5,6.9-5.3,9.9c-3.2,5.3-6.5,10.9-6,22c-2-3-2.9-7.2-2.9-10.3c0-6.4,3.5-11.5,6.9-16.4
					c2.9-4.3,5.7-8.3,5.7-12.7c0-2.4-1.5-4.1-3.6-4.1c-2.2,0-3.4,1.7-3.4,3.4c0,1,0.4,1.8,1,2.4c0.5,0.4,1.3,0.9,2.5,0.9
					c-0.9,0.5-2.1,0.7-3.8,0.7c-2.9,0-5.1-2.4-5.1-5.5c0-4.6,3.3-7.6,8.5-7.6c6.7,0,13.9,6.4,13.9,20.3c0,7.2-1.8,18-10.5,28.4
					l-0.3,0.3L130.5,139.2z"/>
				<path class="st1" d="M81.5,166.2c5.4,0,9.8-3.2,14.2-6.3c3.8-2.7,7.5-5.3,11.3-5.3h0.1l0.1-0.1c4-4.6,6.8-12.1,6.8-18.7
					c0-12.7-7.6-20.5-14.9-20.6l-0.3,0l0.1,0.3c0.4,1.5,0.6,3,0.6,4.3c0,2.7-0.8,4.6-1.6,6.6c-0.9,2.3-2,4.8-2.1,8.8
					c-2.5-1.8-6.1-3-9.3-3c-3.1,0-5,0.5-5.5,0.8l-0.1,0.1l0,0.1c-1,6.2,2.2,12.8,7.9,16.1c-1.7,0.7-3,1.9-4.1,3
					c-0.4-2.1-2.2-3.4-4.8-3.4c-3.9,0-8,3.2-8,8.5C71.7,162.5,75.9,166.2,81.5,166.2z M79.2,151.5c-0.5,0.5-0.9,1.1-0.9,1.9
					c0,1.8,1.3,3.1,3.1,3.1c1.8,0,2.8-1,4-2.2c1.6-1.6,3.5-3.5,8.2-4.2l0.9-0.1l-0.9-0.4c-8.2-3.4-10.9-9.8-10.7-14.6
					c1-0.2,1.9-0.3,3.1-0.3c4.8,0,8.8,2.3,12.1,6.8l1,1.4l-0.5-1.6c-0.4-1.3-0.6-2.9-0.6-5.3c0-4.1,1.1-6.8,2.1-9.2
					c0.8-2,1.5-3.8,1.5-6.1c0-1-0.1-1.9-0.3-2.6c0.2,0.1,0.5,0.2,0.7,0.2c0.1,0,0.2,0.1,0.2,0.1c5.8,2.4,9.1,8.8,9.1,17.7
					c0,4.6-1.6,9.9-3.3,12.9c1.4-12.1,0.3-20.4-3.3-25.9l-0.9-1.4l0.4,1.6c2.3,8.4,2.7,16.7,1.3,25.3c-1.4-5-2.7-10.9-3.5-16.5
					l-0.3-2.2l-0.2,2.2c-0.6,6.4,0.8,13.5,1.7,17.2c-4.2-4.8-10.5-10.3-16.2-11.9l-1.8-0.5l1.6,1c5.9,3.7,11.4,8.4,14.5,12.7
					c-3-1.6-5.9-3.4-8.7-5.2c-1-0.6-2.1-1.3-3.1-1.9l-1.4-0.8l1,1.2c2.2,2.7,6.7,6.1,11,8.5c-2.2,0-6.3,0.3-9.1,2.1
					c-0.9,0.6-1.8,1.2-2.7,1.7c-4.5,3-7.4,4.9-10.4,2.7l-1.8-1.3l1.4,1.7c3.5,4.3,8.3,1.2,13.8-2.3l0.6-0.4c3-1.9,6.4-2.1,8.4-2.1
					c-2.1,1.1-4.2,2.5-6.3,3.9c-4.1,2.8-8.4,5.8-12.8,5.8c-4.2,0-7.2-2.7-7.2-6.4c0-3.1,2-6.3,5.4-6.3
					C79.5,151.3,79.3,151.3,79.2,151.5z"/>
				<path class="st1" d="M213.6,181.4c1.9,0,3.2-0.7,4.8-2.1c2-1.8,3.8-2.8,7.3-2.8c4.4,0,8.7,2.4,8.7,7.7c0,5.5-3.7,8.6-12.7,10.6
					l-2.5,0.6v3.6l3.4-0.6c6.9-1.7,16.2-5.1,16.2-14.4c0-6.8-5.4-11.6-13.1-11.6c-7.3,0-14.2,5.3-14.2,7.7
					C211.5,180.9,212.4,181.4,213.6,181.4z M214.6,178.1c0-0.4,0.3-0.6,0.6-0.6c0.4,0,0.6,0.3,0.6,0.6c0,0.4-0.3,0.6-0.6,0.6
					C214.9,178.7,214.6,178.5,214.6,178.1z"/>
				<path class="st1" d="M217.7,204.1l-2.6-0.5c-3.1-0.6-3.7-1-3.7-1.5c0-0.5,0.3-0.9,1.9-1.3l0.2,0v-3.5l-0.3,0.1
					c-4.1,1.1-5.9,2.6-5.9,4.9c0,2.2,2.4,3.6,7.7,4.5l2.6,0.5c6.8,1.4,7.9,3.6,8.5,4.7c0.3,0.5,0.5,1,1.1,1c0.6,0,0.8-1.2,0.8-1.8
					c0-0.3-0.1-1-0.4-1.6C227,208.5,225.2,205.6,217.7,204.1z"/>
				<path class="st1" d="M218,209.3v-1l-3.1-0.6v1.7c-3.5,0.8-5.7,1.5-5.7,3v0.3h14.7v-0.3C223.9,210.9,221.6,210.1,218,209.3z"/>
				<path class="st1" d="M131.7,204.6c7.4,0,10-2.8,10-5.2v-0.3h-1.9l-6.6-20.4c2.6-0.5,4.9-0.8,6.9-0.8c0.4,1.1,1.7,2.2,3.3,2.2
					s2.9-1.1,3.3-2.2c2.8,0,5.4,0.5,6.9,0.8l-6.6,20.4h-1.9v0.3c0,2.4,2.6,5.2,10,5.2c7,0,9.5-2.7,9.5-5.2v-0.3h-1.6l-6-19.4
					l0.9,0.3l1.1-3.2l-0.3-0.1c-4.2-1.3-8.2-2.1-12.4-2.3c-0.5-1.2-1.7-2.1-3.2-2.1c-1.4,0-2.7,0.8-3.3,2.1c-4.2,0.3-8,1-12.3,2.3
					l-0.3,0.1l1.1,3.2l0.9-0.3l-6,19.4h-1.6v0.3C122.1,202,124.6,204.6,131.7,204.6z M126,199.2l4.7-16.3v16.3H126z M132.7,199.2
					v-16.3l4.8,16.3H132.7z M149.5,199.2l4.8-16.3v16.3H149.5z M156.4,199.2v-16.3l4.8,16.3H156.4z"/>
				<path class="st1" d="M214.9,202.5l3.1,0.6V193c6.3-1.4,12.4-3.1,12.4-8.2v-0.3h-27.8v0.3c0,5,6.1,6.8,12.4,8.2V202.5z"/>
				<path class="st1" d="M221.7,147.3c-2.3,1.8-4.6,2.3-9,2.3c-7.3,0-15.5-4.4-19.1-4.4c-3.1,0-4.4,1.8-4.9,6.2
					c3.9,0,15.2,5.7,23.2,5.7C217.8,157.1,221.2,155,221.7,147.3z M194.3,150.9c-1.2-0.3-1.7-1.2-1.7-2.3c0-1.4,0.8-2.2,1.8-2.1
					c1.4,0.3,1.8,1.4,1.8,2.7C196.2,150.5,195.3,151.2,194.3,150.9z M198.8,152.3l-0.6-1.9v1.7l-1.3-0.4v-4.4l1.3,0.4
					c1.3,0.4,1.8,0.9,1.8,1.7c0,0.5-0.3,0.9-0.8,1l1,2.4L198.8,152.3z M201.9,153.4l-1.3-0.4v-4.5l1.4,0.5c1.5,0.5,2.1,1.5,2.1,2.8
					C204,153.2,202.9,153.6,201.9,153.4z M207.1,154.7l-2.6-0.6v-4.2l2.5,0.6v0.8l-1.2-0.4v1.2l1,0.1v0.8l-1-0.3v1l1.3,0.3V154.7z
					 M211.3,155.3l-1.5-0.1l-1.2-3.3l0.1,3.2l-0.8-0.1v-4.2l1.7,0.3l1,3.2l-0.1-3.1h0.8V155.3z"/>
				<path class="st1" d="M153.7,154c0-0.5-0.3-0.8-0.6-0.8v1.5C153.4,154.8,153.7,154.5,153.7,154z"/>
				<path class="st1" d="M201.9,149.6v3.1c0.5,0.1,0.9-0.1,0.9-1.2C202.8,150.1,202.4,149.8,201.9,149.6z"/>
				<polygon class="st1" points="165.9,148.2 165.7,150.5 166.3,150.3 				"/>
				<path class="st1" d="M151.4,157.1c8,0,19.3-5.9,23.2-5.9c-0.5-4.4-1.8-6.2-4.9-6.2c-3.7,0-11.8,4.6-19.1,4.6
					c-3.2,0-6.7-0.5-9-2.3C142.1,155,145.5,157.1,151.4,157.1z M166.8,147.2l1,4v-4.2l1.3-0.3c1.3-0.3,2.1,0.3,2.1,1.5
					c0,1.4-0.6,2.1-2.1,2.6l-1.3,0.4l-1.3,0.4l-0.1-0.6l-0.9,0.4l-0.1,0.8l-1,0.4l0.9-4.8L166.8,147.2z M161.7,148.9l3-0.9v0.9
					l-0.8,0.1v3.6l-1.3,0.4v-3.6l-0.9,0.4V148.9z M158.6,149.8l1.4-0.4c1-0.3,1.7,0.4,1.7,1.2c0,0.4-0.3,0.9-0.6,1l1,1.5l-1.4,0.4
					l-0.8-1.4v1.7l-1.3,0.4V149.8z M155.5,150.5l2.4-0.5v0.8l-1.2,0.1v1l1.2-0.3v0.8l-1.2,0.1v1.2l1.3-0.3v0.8l-2.6,0.5V150.5z
					 M151.8,151l1.4-0.1c1-0.1,1.7,0.1,1.7,0.9c0,0.5-0.4,1-0.9,1c0.5,0,1,0.1,1,0.9c0,0.8-0.5,1.3-1.5,1.4l-1.7,0.1V151z
					 M149.7,151h1.3v4.1h-1.3V151z M146.9,150.8l1.3,0.1v3.5h1v0.8c-0.8,0-1.8-0.3-2.3-0.5V150.8z"/>
				<path class="st1" d="M198.1,148.3v1.7c0.4,0.1,0.6-0.1,0.6-0.6C198.8,148.9,198.6,148.5,198.1,148.3z"/>
				<path class="st1" d="M160.4,150.7c0-0.4-0.1-0.8-0.5-0.6v1.5C160.3,151.4,160.4,151.2,160.4,150.7z"/>
				<path class="st1" d="M153.7,152.1c0-0.4-0.3-0.6-0.6-0.6v1.3C153.4,152.7,153.7,152.5,153.7,152.1z"/>
				<path class="st1" d="M194.4,147.1c-0.5-0.1-0.5,0.6-0.5,1.7c0,0.8,0,1.5,0.5,1.7c0.5,0.1,0.5-0.6,0.5-1.5
					S194.9,147.2,194.4,147.1z"/>
				<path class="st1" d="M176.1,145.5c0,1.5,0.8,3.9,1.3,5.4c1.3-0.3,3.1-0.5,4.1-0.5c1.3,0,3.1,0.3,4.4,0.5
					c0.5-1.5,1.3-3.9,1.3-5.4c0-2.1-1.5-2.8-5.7-2.8C177.6,142.7,176.1,143.4,176.1,145.5z M182.5,144.5h0.8l-1,2.7v1.4H181v-1.4
					l-1-2.7h1.3l0.6,1.9L182.5,144.5z"/>
				<path class="st1" d="M169.9,148.5c0-1.3-0.3-1.3-0.8-1.3v3C169.7,149.9,169.9,149.6,169.9,148.5z"/>
				<path class="st1" d="M149.4,332.2c0,0.8-0.9,1-1.9,0.8l0.3,1.4c1.5,0.5,3.3-0.5,3.3-2.3c0-2.3-2.4-2.7-2.4-4
					c0-1,0.9-1.2,1.9-0.9l-0.3-1.4c-1.8-0.3-3.2,0.8-3.2,2.3C147.1,330.4,149.4,330.7,149.4,332.2z"/>
				<path class="st1" d="M159.5,329.1l1.4-0.4l0.3,1.5l1.3-0.4l-1.3-7.9l-2.2,0.6l-1.4,8.6l1.7-0.5L159.5,329.1z M159.9,325.3
					l0.1-1.7l0.3-0.1l0.1,1.7l0.3,2.3l-1,0.3L159.9,325.3z"/>
				<path class="st1" d="M154.2,329.3c0.6,0,1-0.4,1-1c0-0.6-0.4-1-1-1c-0.6,0-1,0.4-1,1C153.2,328.9,153.6,329.3,154.2,329.3z"/>
				<path class="st1" d="M117.1,345.7c-0.5,0.3-1.4,0.5-1.8,0.6v-2.7l1.5-0.3v-1.3l-1.5,0.5v-2.3l1.8-0.3v-1.3
					c-1,0.3-2.1,0.5-3.3,0.8v8.2c0.9-0.1,2.4-0.5,3.3-0.8V345.7z"/>
				<path class="st1" d="M143.8,334.8l1.7-0.6l0.3,1.5l1.3-0.5l-1.8-7.7l-2.1,0.8l-1,9l1.5-0.6L143.8,334.8z M144.2,331.1v-1.9
					l0.3-0.1l0.3,1.9l0.5,1.9l-1.3,0.5L144.2,331.1z"/>
				<polygon class="st1" points="107.2,342.5 107.7,345.6 107.5,345.6 107,343.3 105.9,340.2 104.6,340.1 104.6,347.6 105.9,347.8 
					105.9,345.4 105.4,342.3 105.7,342.3 106.2,344.6 107.2,348.1 108.5,348.2 108.5,340.2 107.2,340.2 				"/>
				<path class="st1" d="M119.2,343l0.5-0.1l0.3,1l1.2,1.8l1.5-0.5l-2.2-2.8c0.8-0.5,1.3-1.4,1.3-2.4c0-1.3-1-2.2-2.8-1.7l-1,0.3
					v8.2l1.3-0.4V343z M119.2,339.3c0.8-0.3,1.3,0.3,1.3,1c0,0.5-0.3,1.3-1.3,1.5V339.3z"/>
				<path class="st1" d="M166.8,328.9v-1.2c-1.3,0.5-2.4-0.3-2.4-2.6c0-2.1,0.6-3.1,2.2-3.1v-1.3c-2.1-0.3-3.6,1.5-3.6,4.4
					C163,329,165,329.7,166.8,328.9z"/>
				<path class="st1" d="M124.9,341.4c0.6,0,1-0.4,1-1c0-0.6-0.4-1-1-1c-0.6,0-1,0.4-1,1C123.8,341,124.2,341.4,124.9,341.4z"/>
				<polygon class="st1" points="141.6,336.1 140.1,336.9 140.1,329.5 138.8,330 138.8,338.7 141.6,337.5 				"/>
				<path class="st1" d="M134.6,340.5c1.3,0,2.8-1.3,2.8-3.9v-6.1l-1.5,0.6v6.2c0,1-0.5,1.5-1,1.5c-0.3,0-0.5-0.3-0.5-0.8V332
					l-1.3,0.5v6.2C133.1,339.7,133.6,340.5,134.6,340.5z"/>
				<path class="st1" d="M129.5,340.7l1.5-0.6l0.3,1.8l1.3-0.5l-1.3-8l-2.3,1l-1.3,8.9l1.5-0.6L129.5,340.7z M130,335.2l0.3-0.1
					l0.3,1.9l0.3,1.8l-1.3,0.5L130,335.2z"/>
				<path class="st1" d="M110.3,348.2l1.5-0.1v-6.8c0.3,0,1.4-0.1,1.4-0.1v-1.4c-1.2,0.3-3.3,0.5-4.3,0.5v1.3l1.3-0.1V348.2z"/>
				<path class="st1" d="M233.9,339.2c0.6,0,1-0.4,1-1c0-0.6-0.4-1-1-1c-0.6,0-1,0.4-1,1C232.9,338.8,233.3,339.2,233.9,339.2z"/>
				<polygon class="st1" points="231,340 228.9,339.3 228.9,336.7 230.7,337.4 230.7,336.1 228.9,335.4 228.9,333.3 231,334.2 
					231,332.9 227.6,331.3 227.6,340.1 231,341.4 				"/>
				<polygon class="st1" points="240,345.1 241.3,337.3 240,336.7 239.2,341.4 239.1,343.6 238.7,343.4 238.7,341.2 238,336 
					236.6,335.3 237.7,344.2 				"/>
				<path class="st1" d="M224,335.3h0.5l0.1,0.8l1,3.1l1.8,0.8l-1.9-5c0.8-0.4,1-1.5,1-2.1c0-1.3-0.5-2.3-2.6-3.1l-1.3-0.5v8.8
					l1.3,0.5V335.3z M224,331.2c0.8,0.3,1.3,0.6,1.3,1.7c0,1-0.8,1.4-1.3,1.2V331.2z"/>
				<polygon class="st1" points="245.1,345.4 243.1,344.8 243.1,342.4 244.6,342.9 244.6,341.6 243.1,341.2 243.1,339.1 
					245.1,339.8 245.1,338.5 241.8,337.4 241.8,345.6 245.1,346.8 				"/>
				<path class="st1" d="M252.9,348.6c1.3,0,2.2-1,2.2-2.8v-5.5h-1.4v5.8c0,0.8-0.5,1-0.8,1c-0.5,0-0.8-0.4-0.8-1.3v-5.7l-1.5-0.3
					v5.9C250.5,347.8,251.6,348.6,252.9,348.6z"/>
				<polygon class="st1" points="257.4,345.2 257,342.1 257.2,342.1 258.3,346.5 259.3,346.3 260.2,341.6 260.5,341.5 260.1,344.5 
					260.1,347 261.4,346.4 261.4,339.4 259.8,339.7 259,343 258.9,344.8 258.6,344.8 258.5,343.2 257.5,340.1 256.1,340.2 
					256.1,348.1 257.4,347.9 				"/>
				<path class="st1" d="M216.3,335.3l0.5-1.8l1.5,0.6v1.9l3.6,1.5V336l-2.1-0.8v-2.3l1.5,0.6v-1.3l-1.5-0.6v-2.1l2.1,0.9V329
					l-4.5-1.8l-2.3,7.6L216.3,335.3z M217.7,330.3l0.4-1.7l0.3,0.1v4.1l-1.2-0.5L217.7,330.3z"/>
				<path class="st1" d="M247.2,344.6h0.5l0.1,0.6l0.9,2.4l1.5,0.4l-1.5-3.9c0.5-0.3,1-1.2,1-2.1c0-1.5-0.8-2.7-2.3-3.1l-1.5-0.4
					v8.4l1.3,0.3V344.6z M247.2,340.5c0.8,0,1.3,0.6,1.3,1.4c0,1-0.5,1.5-1.3,1.5V340.5z"/>
				<path class="st1" d="M102.1,346.5c0.4,0.3,0.8,0.4,1.5,0.6v-7.3l-1.5-0.4V346.5z"/>
				<polygon class="st1" points="181.5,325.8 179.7,325.9 179.7,323.3 181.3,323.3 181.3,322.1 179.7,322.2 179.7,320 181.5,319.9 
					181.5,318.6 178.4,318.7 178.4,327.2 181.5,327.1 				"/>
				<polygon class="st1" points="184.1,324.4 183.8,320.8 184.1,320.8 184.6,323.3 185.1,325.4 186.2,325.4 186.7,323.3 187.2,321 
					187.4,321 187.2,324.6 187.2,327.3 188.5,327.5 188.5,319.1 186.9,319 185.9,322.1 185.6,324.1 185.5,324.1 185.4,322.1 
					184.3,318.7 182.8,318.6 182.8,327.1 184.1,327.1 				"/>
				<path class="st1" d="M169,326.6l1.4-0.4l0.3,1.8l1.5-0.3l-1.5-8l-2.3,0.5l-1,8.5l1.4-0.4L169,326.6z M169.4,321h0.3l0.5,3.9
					l-1,0.3L169.4,321z"/>
				<path class="st1" d="M177.4,323.1c0-3.1-1.4-4.1-3.5-3.9l-0.9,0.1v8.2l1-0.1C175.8,327.2,177.4,326.2,177.4,323.1z M174.3,320.5
					c1-0.3,1.8,0.8,1.8,2.8c0,1.5-0.8,2.8-1.8,2.8V320.5z"/>
				<polygon class="st1" points="190.8,319.5 189.5,319.2 189.5,327.6 190.8,327.7 				"/>
				<path class="st1" d="M212.9,334.2c1.2,0.4,2.3-0.5,2.3-1.8v-6.1l-1.3-0.4v6.2c0,0.5-0.3,0.9-0.8,0.8c-0.6-0.1-1-0.8-1-1.8v-5.8
					l-1.3-0.5v6.1C210.9,332.9,211.6,333.8,212.9,334.2z"/>
				<path class="st1" d="M207.5,332.1h0.3l2.3,0.8v-1.5l-1-0.3l-0.8,0.3c1-0.5,1.3-1.5,1.3-3.1c0-3.1-0.8-4.9-2.6-4.9
					c-1.5,0-2.3,1.8-2.3,4.1C204.7,330.3,205.5,332.1,207.5,332.1z M207.1,324.8c0.9,0,1.2,1.4,1.2,3c0,1.8-0.3,3.1-1,3.1
					c-1,0-1.3-1.5-1.3-3.1C206,325.9,206.2,324.8,207.1,324.8z"/>
				<path class="st1" d="M201.1,326.9c0.6,0,1-0.4,1-1c0-0.6-0.4-1-1-1c-0.6,0-1,0.4-1,1C200.1,326.6,200.4,326.9,201.1,326.9z"/>
				<path class="st1" d="M193.2,326.4l1.4,0.3v1.7l3.3,0.8v-1.3l-2.1-0.4V325l1.8,0.4v-1.3l-1.8-0.3v-2.1l2.1,0.5V321
					c-1-0.3-3.1-0.8-4.1-0.9l-2.6,7.7l1.4,0.3L193.2,326.4z M194.3,323l0.4-1.5h0.1l-0.1,1.5v2.4l-1.2-0.1L194.3,323z"/>
			</g>
			<path class="st1" d="M148.5,133.6c0,2.3-1.8,4.1-4.6,4.1c-2.3,0-3.9-1.5-4.1-4.1c1.3,1,4.1,0.3,4.6,2.3c0.3-2.1,2.8-2.1,3.9-3.6
				C148.5,132.9,148.5,133.1,148.5,133.6z"/>
			<path class="st1" d="M150.1,137.8c0,2.8-2.6,4.4-5.9,4.4c-2.6,0-4.1-1-4.4-4.1c1.5,1.5,5.2,0.5,5.7,2.8c0-2.6,3.6-2.8,4.4-4.4
				C150.1,136.7,150.1,137.2,150.1,137.8z"/>
			<path class="st1" d="M143.9,133.4c-2.1,0-3.6-1.5-3.6-3.1c0-0.5,0-0.8,0.3-1.3c1,1.3,3.3,0.8,3.6,3.3c-0.3-2.6,2.8-3.1,3.3-3.6
				C147.6,131.3,146.2,133.4,143.9,133.4z"/>
			<path class="st1" d="M152.4,141.9c0,3.3-3.6,5.4-6.7,5.4c-2.3,0-3.9-1.3-4.4-3.6c0.4,0.4,1.3,0.3,3.9,0.3c1,0,2.3,0,2.8,1.3v-1
				c0-2.6,3.6-3.3,3.9-4.9C152.1,140.3,152.4,141.1,152.4,141.9z"/>
			<path class="st1" d="M143.9,129.3c-0.8-0.3-1.8-1.3-1.8-2.8c0-1.5,1-3.3,2.3-4.6c0,2.1,1,3.3,1,4.9
				C145.4,128,144.4,129,143.9,129.3z"/>
			<path class="st1" d="M200.8,79.3c6.4,0,14.4,6.2,15.5,23.2c-2.3,0-3.1-1.8-3.3-4.6c-1.5-10.8-7.2-16-11.3-16
				c-8,0-1.5,12.6-9.8,14.4c0,2.1-0.5,4.6-1.5,4.6c-1.3,0-1.8-2.3-2.3-4.1c0,2.8-0.8,5.2-1.8,5.2c-0.8,0-1.5-2.3-2.1-4.4
				c0,2.6-1.3,5.2-2.6,5.2c-1,0-2.3-2.6-2.3-5.2c-0.5,2.1-1.3,4.4-2.1,4.4c-1,0-1.8-2.3-1.8-5.2c-0.5,1.8-1,4.1-2.3,4.1
				c-1,0-1.5-2.6-1.5-4.6c-8.2-1.8-1.8-14.4-9.8-14.4c-4.1,0-9.8,5.2-11.3,16c-0.3,2.8-1,4.6-3.3,4.6c1-17,9-23.2,15.5-23.2
				c9.5,0,4.6,11.8,9,11.8c1.8,0,3.3-2.1,4.9-4.6c-0.3,0.5-0.3,1-0.3,1.5c0,2.1,2.1,3.3,5.4,3.3c3.6,0,5.7-1.3,5.7-3.3
				c0-0.5,0-1-0.3-1.5c1.5,2.6,2.8,4.6,4.9,4.6C195.9,91.1,191.3,79.3,200.8,79.3z"/>
			<path class="st1" d="M149.3,127.2c1.3-0.5,2.3-1.8,2.3-5.4c1.5,7,3.1,11.6,4.9,16c1.3,3.3,2.6,5.4,2.6,6.4c0,0.8-0.3,1-0.8,1.3
				C154.5,140.8,151.4,133.9,149.3,127.2z"/>
			<path class="st1" d="M156,97.3c-0.4,3.1-1.8,4.4-3.9,4.4c0.3-4.6,1.5-9,2.8-11.8c1.8-3.9,4.9-6.2,6.4-6.2c0.5,0,1,0.3,1,0.8
				c0,0.5-0.8,0.8-1.8,1.8C158.6,88.3,156.7,92.2,156,97.3z"/>
			<path class="st1" d="M152.1,103.8c1.3,0,2.6-0.8,3.3-3.9c-0.3,2.1-0.3,3.9-0.3,5.7v5.2c0,1.8-0.3,4.1-2.6,4.4
				C152.1,111,152.1,107.1,152.1,103.8z"/>
			<path class="st1" d="M152.9,117.1c1.5,0,2.8-1.3,2.8-4.4c1.3,11.6,4.4,18,5.9,22.4c0.8,2.3,1.3,4.1,1.3,5.4c0,0.8-0.3,1.3-1,1.5
				C158.1,136,154.2,126.4,152.9,117.1z"/>
			<path class="st1" d="M157.3,103.5c1.3,0,2.6-0.8,3.3-4.1c-0.3,2.3-0.5,4.1-0.5,5.4c0,1.8,0.3,4.1,0.3,5.4c0,2.1-0.3,4.1-2.6,4.6
				c-0.5-2.8-0.8-5.4-0.8-8C157,105.6,157,104.5,157.3,103.5z"/>
			<path class="st1" d="M160.9,97.3c-0.5,3.1-1.3,4.1-3.3,4.1c0.5-6.7,1.8-10.3,4.1-13.6c0.5-0.8,1.3-1.5,2.1-1.5
				c0.3,0,0.8,0.3,0.8,0.8c0,0.5-0.3,0.8-0.5,1.3C162.2,90.6,161.4,94.5,160.9,97.3z"/>
			<path class="st1" d="M157.8,116.6c1.5-0.3,2.6-1.5,2.8-4.6c0.8,7.5,3.3,14.9,5.2,19.8c0.8,2.1,1,3.6,1,4.9c0,0.8-0.3,1.3-0.8,1.8
				C162.2,133.1,158.8,122.8,157.8,116.6z"/>
			<path class="st1" d="M162.2,101.4c1.5,0,2.8-1.3,3.3-3.6c-0.3,2.1-0.3,3.6-0.3,5.2c0,2.3,0.3,4.4,0.3,5.7c0,2.3-1.5,3.9-3.1,3.9
				c-0.3-2.6-0.3-4.6-0.3-6.7V101.4z"/>
			<path class="st1" d="M164.5,91.9c0.5,0,1,0.8,1,2.6c0,2.3-0.8,4.9-3.1,4.9C163.2,92.9,163.7,91.9,164.5,91.9z"/>
			<path class="st1" d="M162.7,114.8c1.3-0.3,2.8-1,3.1-4.1c0.5,7.5,2.6,13.9,3.9,18.5c0.8,2.3,1.3,3.9,1.3,5.2
				c0,0.5-0.3,1.3-0.8,1.5C166.6,130.5,163.7,121,162.7,114.8z"/>
			<path class="st1" d="M169.9,100.7c0,3.3,0.3,5.9,0.3,7.5c0,2.3-1.3,3.9-2.3,3.9c-0.5-3.3-0.8-6.2-0.8-9.3c0-3.9,0.5-4.6,1.3-4.6
				C169.1,98.1,169.9,98.9,169.9,100.7z"/>
			<path class="st1" d="M170.9,143.7l0.3-1.8l1.5-2.6l-2.8,2.3l-0.8,1.3h-0.5l0.3-1.8l2.1-1.8l-2.6,0.8l-0.5,0.8h-0.8l1-1.5l5.2-2.1
				l0.8-5.7c0.3,0.3,0.5,0.3,1,0.3c0.8,0,1,0,1.3-0.3l-1.3,5.7l3.3,2.1l0.5,2.1h-0.5l-1.3-1.3l-2.3-0.8l-2.3,2.8l-1,1.5H170.9z"/>
			<path class="st1" d="M167.9,113.8c1,0,2.3-1,2.6-3.6c0.3,2.6,1.3,7,1.3,8.8s-0.8,3.3-1.8,3.3C168.9,120,168.4,116.4,167.9,113.8z
				"/>
			<path class="st1" d="M174,124.1c0,1,0.5,2.1,1.5,2.1c0.8,0,1.5-0.8,2.1-1.8c1,1,1.5,2.8,1.5,6.2c-1.3-0.3-2.3-1.5-2.3-3.1
				c-0.3,2.1-1,3.1-1.8,3.1c-0.5,0-0.8-0.8-0.8-1.8v-1.8c-0.3,1-1.8,2.3-3.1,1.8C172,126.4,173,124.6,174,124.1z"/>
			<path class="st1" d="M176.1,118.2c2.8,0,3.6,1,3.6,4.9v1.5c-1.3,0-2.1-1.3-2.3-2.6c-0.3,1.8-1,2.6-1.5,2.6c-0.8,0-1-0.5-1-1.8
				v-1.5c-1,1.8-2.1,1.8-2.8,1.8C173,119.2,174,118.2,176.1,118.2z"/>
			<path class="st1" d="M181.5,105c1.5,0,2.6-1.5,2.6-3.6c0.5,2.1,1.5,2.8,2.3,2.8c1,0,2.1-1.8,2.1-3.9c0.3,1.8,1.3,3.3,2.6,3.3
				c0,2.8-0.5,4.4-1.8,4.4c-0.8,0-1-1.3-1.5-3.3c0,2.1-1,4.1-2.1,4.1c-0.8,0-1.3-0.8-1.8-3.1c-0.3,2.3-1.3,4.1-2.3,4.1
				c-0.8,0-2.1-1.8-2.1-4.1c-0.5,2.3-1,3.1-1.8,3.1c-1,0-2.1-2.1-2.1-4.1c-0.5,2.1-0.8,3.3-1.5,3.3c-1.3,0-1.8-1.5-1.8-4.4
				c1,0,2.3-1.5,2.6-3.3c0,2.1,1,3.9,2.1,3.9c0.8,0,1.8-0.8,2.3-2.8C179.2,103.5,180.2,105,181.5,105z"/>
			<path class="st1" d="M181.5,112.8c1.3,0,2.6-1.8,2.6-3.9c0.5,2.1,1,3.1,2.1,3.1c1,0,1.8-1.8,1.8-4.1c1.5,2.3,2.1,4.6,2.1,6.2
				c0,1.8-0.5,2.3-1,2.3c-0.8,0-1.8-1-2.1-3.3c0,2.8-0.8,4.1-1.8,4.1c-0.5,0-1.3-1-1.8-2.8c0,2.3-0.8,3.9-1.8,3.9
				c-0.8,0-1.5-1.5-1.5-3.9c-0.5,1.8-1.3,2.8-1.8,2.8c-1,0-1.8-1.3-1.8-4.1c-0.3,2.3-1.3,3.3-2.1,3.3c-0.5,0-1-0.5-1-2.3
				c0-1.5,0.5-3.9,2.1-6.2c0,2.3,0.8,4.1,1.8,4.1c1,0,1.5-1,2.1-3.1C179.2,111,180.5,112.8,181.5,112.8z"/>
			<path class="st1" d="M175.2,154.6c0-1,0.9-1.9,3-3c-0.5,1-1,1.5-1.8,2.3c1.5-1,1.3-0.8,2.1-1.3c-1,2.3-1.9,2.6-2.4,2.6
				S175.2,155,175.2,154.6z"/>
			<path class="st1" d="M177,156.9c0-1,0.8-2.3,2.6-4.1c-0.5,1.5-0.8,2.1-1.3,3.6c0.8-1.3,1.3-1.8,1.8-2.6c-0.3,3.6-1.4,4.2-2.2,4.2
				C177.4,158.1,177,157.7,177,156.9z"/>
			<path class="st1" d="M181.5,162.5c-1,0-1.8-0.5-1.8-2.3c0-1.3,0.3-2.4,1-4.8c0.3,1,0.8,2.1,0.8,3.6c0-1.5,0.5-2.6,0.8-3.6
				c0.8,2.3,1,3.5,1,4.8C183.3,162,182.5,162.5,181.5,162.5z"/>
			<path class="st1" d="M184.2,82.8c0,1.2,0.4,2.2,0.4,2.4c0,1-1.5,1.8-3.1,1.8c-1,0-2.6-0.8-2.6-1.5c0-0.8,0.9-2.6,0.9-4.1
				c0-0.3,0-0.5-0.3-1c0.5,0.4,1.2,0.5,1.8,0.5c0.6,0,1.5-0.3,1.8-0.8c-3.1,0.9-4.2-0.9-4.5-2.4c-1.2,0.5-2.3,0.1-2.6-0.8
				c-0.5,0.3-1.2,0.4-1.7,0.8c-0.5-2.2,0.3-2.7,3-3.1c-0.4-0.4-0.5-0.9-0.5-1.3c0-1.3,1.4-1.9,4.6-1.9c1.4,0,2.3,0.5,2.1,1.2
				c0,0.5-0.3,0.5-0.3,0.8c1.7,0.5,2.2,1.9,2.2,3.3C185.5,79.2,184.2,79.7,184.2,82.8z M181.5,75.4c0.5,0,0.9-0.3,0.9-0.8
				c0-0.5-0.4-0.8-0.9-0.8s-0.9,0.3-0.9,0.8C180.6,75.2,181,75.4,181.5,75.4z"/>
			<path class="st1" d="M185.1,158.1c-0.8,0-1.9-0.6-2.2-4.2c0.5,0.8,1,1.3,1.8,2.6c-0.5-1.5-0.8-2.1-1.3-3.6
				c1.8,1.8,2.6,3.1,2.6,4.1C186,157.7,185.6,158.1,185.1,158.1z"/>
			<path class="st1" d="M188.5,121.3v1.5c0,1.3-0.3,1.8-1,1.8c-0.5,0-1.3-0.8-1.8-2.6c0,1.3-0.8,2.6-2.1,2.6v-1.5
				c0-3.9,0.8-4.9,3.6-4.9c2.1,0,3.1,1,4.1,4.9C190.5,123.1,189.5,123.1,188.5,121.3z"/>
			<path class="st1" d="M189,126.9v1.8c0,1-0.3,1.8-0.8,1.8c-0.8,0-1.5-1-1.8-3.1c-0.3,1.5-1.3,2.8-2.3,3.1c0-3.3,0.3-5.2,1.3-5.9
				c0.5,1.3,1.5,1.5,2.3,1.5c1,0,1.8-0.8,1.8-1.8c1,0.8,1.8,2.1,2.3,4.4C190.8,129.3,189.2,128,189,126.9z"/>
			<path class="st1" d="M191.8,143.7l-1-1.5l-2.3-2.8l-2.3,0.8l-1.3,1.3h-0.5l0.5-2.1l3.3-2.1l-1.3-5.7c0.3,0.3,0.5,0.3,1.3,0.3
				c0.5,0,0.8,0,1-0.3l0.5,5.7l5.4,2.1l0.8,1.5h-0.5l-0.5-0.8l-2.6-0.8l2.1,1.8l0.3,1.8h-0.5l-0.8-1.3l-2.8-2.3l1.5,2.6l0.3,1.8
				H191.8z"/>
			<path class="st1" d="M187,155.3c-0.5,0-1.4-0.3-2.4-2.6c0.8,0.5,0.5,0.3,2.1,1.3c-0.8-0.8-1.3-1.3-1.8-2.3c2.1,1,3,1.9,3,3
				C187.8,155,187.6,155.3,187,155.3z"/>
			<path class="st1" d="M195.4,113.8c-0.5,2.6-1,6.2-2.1,8.5c-1,0-1.8-1.5-1.8-3.3s1-6.2,1.3-8.8
				C192.8,112.8,194.4,113.8,195.4,113.8z"/>
			<path class="st1" d="M200.6,114.8c-1,6.2-3.9,15.7-7.5,21.1c-0.5-0.3-0.8-1-0.8-1.5c0-1.3,0.5-2.8,1.3-5.2
				c1.3-4.6,3.3-11.1,3.9-18.5C197.7,113.8,199.3,114.6,200.6,114.8z"/>
			<path class="st1" d="M193.4,100.7c0-1.8,0.8-2.6,1.5-2.6c0.8,0,1,0.8,1,4.6c0,3.1,0,5.9-0.5,9.3c-1,0-2.3-1.5-2.3-3.9
				C193.1,106.6,193.4,104,193.4,100.7z"/>
			<path class="st1" d="M205.5,116.6c-1,6.2-4.4,16.5-8.2,21.9c-0.5-0.5-0.8-1-0.8-1.8c0-1.3,0.3-2.8,1-4.9
				c1.8-4.9,4.4-12.4,5.2-19.8C202.9,115.1,203.9,116.4,205.5,116.6z"/>
			<path class="st1" d="M198.8,91.9c0.8,0,1.3,1,2.1,7.5c-2.3,0-3.1-2.6-3.1-4.9C197.7,92.7,198,91.9,198.8,91.9z"/>
			<path class="st1" d="M201.1,101.4v4.4c0,2.1,0,4.1-0.3,6.7c-1.5,0-3.1-1.5-3.1-3.9c0-1.3,0.3-3.3,0.3-5.7c0-1.5,0-3.1-0.3-5.2
				C198.2,100.2,199.5,101.4,201.1,101.4z"/>
			<path class="st1" d="M202.4,97.3c-0.5-2.8-1.3-6.7-3.1-9c-0.3-0.5-0.5-0.8-0.5-1.3c0-0.5,0.5-0.8,0.8-0.8c0.8,0,1.5,0.8,2.1,1.5
				c2.3,3.3,3.6,7,4.1,13.6C203.7,101.4,202.9,100.4,202.4,97.3z"/>
			<path class="st1" d="M210.3,117.1c-1.3,9.3-5.2,18.8-9,25c-0.8-0.3-1.3-0.8-1.3-1.5c0-1.3,0.8-3.1,1.5-5.4
				c1.5-4.4,4.6-10.8,5.9-22.4C207.5,115.9,208.8,117.1,210.3,117.1z"/>
			<path class="st1" d="M207.3,97.3c-0.6-5.2-2.6-9-4.6-11.1c-1-1-1.8-1.3-1.8-1.8c0-0.5,0.5-0.8,1-0.8c1.5,0,4.4,2.3,6.4,6.2
				c1.3,2.8,2.6,7.2,2.8,11.8C209.1,101.7,207.6,100.4,207.3,97.3z"/>
			<path class="st1" d="M206,103.5c0.3,1,0.3,2.1,0.3,3.3c0,2.6-0.3,5.2-0.8,8c-2.3-0.5-2.6-2.6-2.6-4.6c0-1.3,0.3-3.6,0.3-5.4
				c0-1.3-0.3-3.1-0.5-5.4C203.4,102.7,204.7,103.5,206,103.5z"/>
			<path class="st1" d="M214,127.2c-2.1,6.7-5.2,13.6-9,18.3c-0.5-0.3-0.8-0.5-0.8-1.3c0-1,1.3-3.1,2.6-6.4c1.5-4.4,3.3-9,4.9-16
				C211.6,125.4,212.4,126.7,214,127.2z"/>
			<path class="st1" d="M211.1,103.8c0,3.3,0,7.2-0.5,11.3c-2.3-0.3-2.6-2.6-2.6-4.4v-5.2c0-1.8,0-3.6-0.3-5.7
				C208.3,103,209.8,103.8,211.1,103.8z"/>
			<path class="st1" d="M210.9,141.9c0-0.8,0.3-1.5,0.5-2.6c0.3,1.5,3.9,2.3,3.9,4.9v1c0.5-1.3,1.8-1.3,2.8-1.3
				c2.6,0,3.5,0.1,3.9-0.3c-0.5,2.3-2.1,3.6-4.4,3.6C214.5,147.3,210.9,145.2,210.9,141.9z"/>
			<path class="st1" d="M216.5,104.8v3.6c0,4.9-0.5,11.3-2.1,16.7c-1.3-0.5-2.3-1.8-2.3-4.6c0-0.8,0-1.8,0.3-2.6
				c0.3-1.8,0.8-6.2,0.8-11.3c0-1.8,0-3.9-0.3-5.9C213.7,104,215.2,104.8,216.5,104.8z"/>
			<path class="st1" d="M213.2,137.8c0-0.5,0-1,0.3-1.3c0.8,1.5,4.4,1.8,4.4,4.4c0.5-2.3,4.1-1.3,5.7-2.8c-0.3,3.1-1.8,4.1-4.4,4.1
				C215.8,142.1,213.2,140.6,213.2,137.8z"/>
			<path class="st1" d="M214.7,133.6c0-0.5,0-0.8,0.3-1.3c1,1.5,3.6,1.5,3.6,3.6c0.8-2.1,3.6-1.3,4.9-2.3c-0.3,2.6-1.8,4.1-4.1,4.1
				C216.5,137.8,214.7,136,214.7,133.6z"/>
			<path class="st1" d="M219.4,133.4c-2.3,0-3.7-2.1-3.6-4.6c0.5,0.5,3.6,1,3.3,3.6c0.3-2.6,2.6-2.1,3.6-3.3v1.3
				C222.7,131.8,221.4,133.4,219.4,133.4z"/>
			<path class="st1" d="M219.4,129.3c-0.8-0.3-1.5-1.3-1.5-2.6c0-1.5,1-2.8,1-4.9c1.3,1.3,2.3,3.1,2.3,4.6
				C221.2,128,220.1,129,219.4,129.3z"/>
			<path class="st1" d="M146.7,104.9c1.3,0,2.8-0.8,3.6-4.1c-0.3,2.1-0.3,4.1-0.3,5.9c0,5.2,0.5,9.5,0.8,11.3
				c0.3,0.8,0.3,1.8,0.3,2.6c0,2.8-1,4.1-2.3,4.6c-1.5-5.4-2.3-11.8-2.3-16.7C146.4,107.2,146.4,105.9,146.7,104.9z"/>
		</g>
	</g>
</g>
<g>
</g>
<g>
</g>
<g>
</g>
<g>
</g>
<g>
</g>
<g>
</g>
</svg>
