<?xml version="1.0" encoding="UTF-8" standalone="no"?>
<!-- Created with Inkscape (http://www.inkscape.org/) -->

<svg
   xmlns:dc="http://purl.org/dc/elements/1.1/"
   xmlns:cc="http://creativecommons.org/ns#"
   xmlns:rdf="http://www.w3.org/1999/02/22-rdf-syntax-ns#"
   xmlns:svg="http://www.w3.org/2000/svg"
   xmlns="http://www.w3.org/2000/svg"
   xmlns:sodipodi="http://sodipodi.sourceforge.net/DTD/sodipodi-0.dtd"
   xmlns:inkscape="http://www.inkscape.org/namespaces/inkscape"
   width="245"
   height="245"
   viewBox="0 0 245 245"
   id="svg2"
   version="1.1"
   inkscape:version="0.91 r13725"
   sodipodi:docname="LogotipoUN.svg">
  <defs
     id="defs4" />
  <sodipodi:namedview
     id="base"
     pagecolor="#ffffff"
     bordercolor="#666666"
     borderopacity="1.0"
     inkscape:pageopacity="0.0"
     inkscape:pageshadow="2"
     inkscape:zoom="1.3936809"
     inkscape:cx="88.726681"
     inkscape:cy="61.828288"
     inkscape:document-units="px"
     inkscape:current-layer="layer1"
     showgrid="false"
     inkscape:window-width="1366"
     inkscape:window-height="704"
     inkscape:window-x="0"
     inkscape:window-y="27"
     inkscape:window-maximized="1"
     units="px" />
  <metadata
     id="metadata7">
    <rdf:RDF>
      <cc:Work
         rdf:about="">
        <dc:format>image/svg+xml</dc:format>
        <dc:type
           rdf:resource="http://purl.org/dc/dcmitype/StillImage" />
        <dc:title></dc:title>
      </cc:Work>
    </rdf:RDF>
  </metadata>
  <g
     inkscape:label="Capa 1"
     inkscape:groupmode="layer"
     id="layer1"
     transform="translate(0,-807.36214)">
    <circle
       r="0"
       cy="468.57672"
       cx="270.32901"
       id="ellipse4193"
       style="opacity:0.58200001;fill:#ff0000;fill-opacity:1;stroke:none;stroke-width:0.5;stroke-linecap:square;stroke-miterlimit:4;stroke-dasharray:none;stroke-dashoffset:0;stroke-opacity:1" />
    <circle
       r="0"
       cy="468.57672"
       cx="270.32901"
       id="ellipse4195"
       style="opacity:0.58200001;fill:#ff0000;fill-opacity:1;stroke:none;stroke-width:0.5;stroke-linecap:square;stroke-miterlimit:4;stroke-dasharray:none;stroke-dashoffset:0;stroke-opacity:1" />
    <g
       id="g4233"
       transform="matrix(1.0123306,0,0,1.0123306,-178.21671,453.25905)">
      <circle
         r="70.138008"
         cy="469.46335"
         cx="297.59326"
         id="path4218"
         style="opacity:1;fill:#94b43b;fill-opacity:1;stroke:none;stroke-width:0.5;stroke-linecap:square;stroke-miterlimit:4;stroke-dasharray:none;stroke-dashoffset:0;stroke-opacity:1" />
      <path
         inkscape:connector-curvature="0"
         id="rect4147"
         d="m 247.08594,445.45898 c 0.0113,7.74479 -0.0165,15.50495 0.002,23.24219 -1e-4,12.83558 7.52438,23.24219 23.24023,23.24219 7.65117,-0.013 15.53261,0 23.24219,0 l 0,-23.24219 0,-23.24219 -7.70508,0 0,24.10938 c 3.2e-4,8.14436 -6.95616,14.74667 -15.53711,14.74609 -8.58019,-4.5e-4 -15.53547,-6.60245 -15.53515,-14.74609 l 0,-24.10938 -7.70703,0 z"
         style="opacity:1;fill:#ffffff;fill-opacity:1;stroke:none;stroke-width:0.5;stroke-linecap:square;stroke-miterlimit:4;stroke-dasharray:none;stroke-dashoffset:0;stroke-opacity:1" />
      <path
         inkscape:connector-curvature="0"
         style="opacity:1;fill:#ffffff;fill-opacity:1;stroke:none;stroke-width:0.5;stroke-linecap:square;stroke-miterlimit:4;stroke-dasharray:none;stroke-dashoffset:0;stroke-opacity:1"
         d="m 347.85393,491.94336 c -0.0113,-7.74479 0.0166,-15.50495 -0.002,-23.24219 1e-4,-12.83558 -7.52438,-23.24219 -23.24023,-23.24219 -7.65117,0.013 -15.53261,0 -23.24219,0 l 0,23.24219 0,23.24219 7.70508,0 0,-24.10938 c -3.2e-4,-8.14436 6.95616,-14.74667 15.53711,-14.74609 8.58019,4.5e-4 15.53547,6.60245 15.53515,14.74609 l 0,24.10938 7.70703,0 z"
         id="path4214" />
      <g
         id="text4224"
         style="font-style:normal;font-weight:normal;font-size:20.90364838px;line-height:0%;font-family:sans-serif;text-align:center;letter-spacing:6.25px;word-spacing:0px;text-anchor:middle;fill:#000000;fill-opacity:1;stroke:none;stroke-width:1px;stroke-linecap:butt;stroke-linejoin:miter;stroke-opacity:1">
        <path
           inkscape:connector-curvature="0"
           id="path4173"
           style="font-style:normal;font-variant:normal;font-weight:normal;font-stretch:normal;font-family:'Ancizar Sans';-inkscape-font-specification:'Ancizar Sans';letter-spacing:6.25px;fill:#000000"
           d="m 213.02556,500.96861 c 2.83397,-0.88292 3.65144,-3.10812 2.81205,-5.80238 -0.97617,-3.13333 -3.21972,-4.36109 -6.27322,-3.40978 l -7.70361,2.40003 0.54094,1.7363 8.14267,-2.53682 c 1.87601,-0.58446 3.0899,0.21967 3.59353,1.83623 0.57825,1.85605 0.11179,3.38073 -2.34299,4.14551 l -7.58386,2.36272 0.57203,1.8361 8.24246,-2.56791 z" />
        <path
           inkscape:connector-curvature="0"
           id="path4175"
           style="font-style:normal;font-variant:normal;font-weight:normal;font-stretch:normal;font-family:'Ancizar Sans';-inkscape-font-specification:'Ancizar Sans';letter-spacing:6.25px;fill:#000000"
           d="m 211.65082,472.38487 -0.12383,-1.75153 -12.76118,0.90218 0.11793,1.66813 9.7794,-0.69138 -9.32684,7.09282 0.13415,1.8975 12.76118,-0.90218 -0.11793,-1.66813 -9.90451,0.70022 9.44163,-7.24763 z" />
        <path
           inkscape:connector-curvature="0"
           id="path4177"
           style="font-style:normal;font-variant:normal;font-weight:normal;font-stretch:normal;font-family:'Ancizar Sans';-inkscape-font-specification:'Ancizar Sans';letter-spacing:6.25px;fill:#000000"
           d="m 199.61787,457.26893 -0.21701,1.91086 12.71132,1.4436 0.21702,-1.91085 -12.71133,-1.44361 z" />
        <path
           inkscape:connector-curvature="0"
           id="path4179"
           style="font-style:normal;font-variant:normal;font-weight:normal;font-stretch:normal;font-family:'Ancizar Sans';-inkscape-font-specification:'Ancizar Sans';letter-spacing:6.25px;fill:#000000"
           d="m 215.4511,444.14708 -10.92493,-8.17459 -0.53883,1.82432 9.2126,6.6662 -11.33834,0.53084 -0.58028,1.96465 13.56581,-0.76658 0.60397,-2.04484 z" />
        <path
           inkscape:connector-curvature="0"
           id="path4181"
           style="font-style:normal;font-variant:normal;font-weight:normal;font-stretch:normal;font-family:'Ancizar Sans';-inkscape-font-specification:'Ancizar Sans';letter-spacing:6.25px;fill:#000000"
           d="m 220.15734,432.01942 3.53037,-6.62214 -1.30357,-0.93183 -2.6502,5.14889 -3.91056,-2.08478 2.23846,-4.06553 -1.17444,-0.86299 -2.28146,4.27948 -3.56009,-1.89794 2.54209,-4.59062 -1.24823,-0.90234 -3.47136,6.51146 11.28899,6.01834 z" />
        <path
           inkscape:connector-curvature="0"
           id="path4183"
           style="font-style:normal;font-variant:normal;font-weight:normal;font-stretch:normal;font-family:'Ancizar Sans';-inkscape-font-specification:'Ancizar Sans';letter-spacing:6.25px;fill:#000000"
           d="m 225.97083,410.80144 c -0.37183,0.45202 -0.73324,0.85847 -1.1108,1.25165 l -3.61615,-2.97464 c 0.276,-0.36843 0.59185,-0.7853 0.84416,-1.09203 1.07565,-1.30763 2.45281,-1.50108 3.71201,-0.46527 1.21077,0.99597 0.96756,2.31168 0.17078,3.28029 z m 0.7439,1.23448 c 0.18592,-0.22601 0.35569,-0.4653 0.5226,-0.73402 l 5.89893,1.25249 1.39436,-1.69508 -6.65066,-1.19416 c 0.32289,-1.41257 0.0268,-2.92825 -1.26464,-3.99062 -1.61436,-1.32796 -3.58467,-0.97282 -5.31102,1.12584 l -2.36377,2.87356 9.87986,8.12712 1.22173,-1.48521 -4.10047,-3.37302 c 0.27887,-0.33902 0.60045,-0.69704 0.77308,-0.9069 z" />
        <path
           inkscape:connector-curvature="0"
           id="path4185"
           style="font-style:normal;font-variant:normal;font-weight:normal;font-stretch:normal;font-family:'Ancizar Sans';-inkscape-font-specification:'Ancizar Sans';letter-spacing:6.25px;fill:#000000"
           d="m 239.03967,398.86479 c 2.25362,-0.71382 3.00115,-0.46199 3.71728,0.41056 0.76917,0.93719 0.41794,2.09081 -0.63235,2.95282 -0.90487,0.74265 -1.97344,1.18698 -3.13775,1.54762 l 0.7937,1.59312 c 0.73505,-0.22468 2.00912,-0.94583 2.7524,-1.55587 2.39144,-1.96271 2.81585,-4.31219 1.30403,-6.15424 -0.9681,-1.17956 -2.15114,-1.53369 -4.95169,-0.69549 -1.97436,0.59278 -2.82007,0.58378 -3.54945,-0.30493 -0.68961,-0.84024 -0.55133,-1.79204 0.45048,-2.61426 0.90487,-0.74265 1.86903,-1.18241 2.94508,-1.55174 l -0.69218,-1.56827 c -0.63063,0.22011 -1.64616,0.72907 -2.77725,1.65739 -2.10058,1.724 -2.39284,3.93797 -1.11973,5.48917 1.06093,1.29267 2.49092,1.55229 4.89743,0.79412 z" />
        <path
           inkscape:connector-curvature="0"
           id="path4187"
           style="font-style:normal;font-variant:normal;font-weight:normal;font-stretch:normal;font-family:'Ancizar Sans';-inkscape-font-specification:'Ancizar Sans';letter-spacing:6.25px;fill:#000000"
           d="m 249.11339,383.4461 -1.66525,0.96197 6.39922,11.07753 1.66525,-0.96197 -6.39922,-11.07753 z" />
        <path
           inkscape:connector-curvature="0"
           id="path4189"
           style="font-style:normal;font-variant:normal;font-weight:normal;font-stretch:normal;font-family:'Ancizar Sans';-inkscape-font-specification:'Ancizar Sans';letter-spacing:6.25px;fill:#000000"
           d="m 260.17754,377.96211 4.20452,11.86081 c 0.75119,-0.13322 2.20594,-0.47148 3.36837,-0.88355 3.88137,-1.3759 5.83276,-4.81774 4.38003,-8.91583 -1.25018,-3.52672 -4.2887,-4.77831 -7.79572,-3.53511 l -4.1572,1.47368 z m 2.28057,0.6775 1.75351,-0.6216 c 2.60071,-0.92192 5.07631,-0.0696 6.15887,2.98427 1.26415,3.56613 -0.31122,5.56616 -2.41937,6.31348 -0.68958,0.24444 -1.55774,0.48566 -2.20343,0.60366 l -3.28958,-9.27981 z" />
        <path
           inkscape:connector-curvature="0"
           id="path4191"
           style="font-style:normal;font-variant:normal;font-weight:normal;font-stretch:normal;font-family:'Ancizar Sans';-inkscape-font-specification:'Ancizar Sans';letter-spacing:6.25px;fill:#000000"
           d="m 288.22948,378.59536 -3.7557,0.45835 1.17819,-5.7033 2.57751,5.24495 z m 2.50006,5.12804 1.99197,-0.24311 -6.09397,-12.14423 -2.13722,0.26083 -3.03589,13.25846 1.86747,-0.22791 0.84684,-4.10451 4.71018,-0.57484 1.85062,3.77531 z" />
        <path
           inkscape:connector-curvature="0"
           id="path4193"
           style="font-style:normal;font-variant:normal;font-weight:normal;font-stretch:normal;font-family:'Ancizar Sans';-inkscape-font-specification:'Ancizar Sans';letter-spacing:6.25px;fill:#000000"
           d="m 302.2991,370.73743 -1.20177,12.52648 c 0.73711,0.19672 2.19852,0.50492 3.4262,0.6227 4.09919,0.39327 7.32229,-1.90146 7.73752,-6.22955 0.35734,-3.72465 -1.8676,-6.14307 -5.57144,-6.49841 l -4.39051,-0.42122 z m 1.78059,1.5778 1.85192,0.17767 c 2.74667,0.26352 4.63016,2.08218 4.32073,5.30744 -0.36133,3.76627 -2.63432,4.91318 -4.86079,4.69957 -0.72828,-0.0699 -1.61704,-0.21813 -2.25211,-0.38406 l 0.94025,-9.80062 z" />
        <path
           inkscape:connector-curvature="0"
           id="path4195"
           style="font-style:normal;font-variant:normal;font-weight:normal;font-stretch:normal;font-family:'Ancizar Sans';-inkscape-font-specification:'Ancizar Sans';letter-spacing:6.25px;fill:#000000"
           d="m 338.05523,393.5624 1.57999,0.76606 5.58129,-11.51133 -1.50475,-0.72959 -4.27717,8.8216 -1.49731,-11.62136 -1.71165,-0.8299 -5.58129,11.51134 1.50475,0.72958 4.33188,-8.93446 1.57426,11.79806 z" />
        <path
           inkscape:connector-curvature="0"
           id="path4197"
           style="font-style:normal;font-variant:normal;font-weight:normal;font-stretch:normal;font-family:'Ancizar Sans';-inkscape-font-specification:'Ancizar Sans';letter-spacing:6.25px;fill:#000000"
           d="m 355.79399,399.0629 -2.96171,-2.35449 4.89049,-3.1621 -1.92878,5.51659 z m -1.89982,5.37939 1.57085,1.24879 4.37754,-12.86297 -1.68539,-1.33985 -11.57727,7.13935 1.47268,1.17074 3.51879,-2.27644 3.71441,2.95287 -1.39161,3.96751 z" />
        <path
           inkscape:connector-curvature="0"
           id="path4199"
           style="font-style:normal;font-variant:normal;font-weight:normal;font-stretch:normal;font-family:'Ancizar Sans';-inkscape-font-specification:'Ancizar Sans';letter-spacing:6.25px;fill:#000000"
           d="m 368.41213,417.03751 c -0.86899,-0.39264 -1.85502,-1.12277 -2.54909,-1.95932 -1.48156,-1.78572 -1.82126,-4.35584 1.17102,-6.83846 2.91185,-2.41588 5.08862,-1.56006 6.22315,-0.19262 0.80085,0.96525 1.48324,2.24607 1.70361,3.06821 l 1.54299,-0.6283 c -0.19915,-0.7311 -0.96437,-2.07901 -1.73852,-3.01209 -2.50932,-3.02445 -6.251,-3.01649 -9.32372,-0.46713 -3.2336,2.68283 -3.31049,6.06033 -1.04143,8.79521 0.97436,1.1744 2.28656,2.06849 3.07547,2.36461 l 0.93652,-1.13011 z" />
        <path
           inkscape:connector-curvature="0"
           id="path4201"
           style="font-style:normal;font-variant:normal;font-weight:normal;font-stretch:normal;font-family:'Ancizar Sans';-inkscape-font-specification:'Ancizar Sans';letter-spacing:6.25px;fill:#000000"
           d="m 383.75381,421.23813 -0.95704,-1.66809 -11.09642,6.36641 0.95704,1.66809 11.09642,-6.36641 z" />
        <path
           inkscape:connector-curvature="0"
           id="path4203"
           style="font-style:normal;font-variant:normal;font-weight:normal;font-stretch:normal;font-family:'Ancizar Sans';-inkscape-font-specification:'Ancizar Sans';letter-spacing:6.25px;fill:#000000"
           d="m 387.05528,444.82228 c 3.83171,-1.32797 5.27032,-4.32651 4.22301,-7.34842 -1.2253,-3.53545 -4.51796,-5.24822 -8.62619,-3.82442 -3.85146,1.33482 -5.27717,4.30676 -4.22985,7.32867 1.22529,3.53545 4.5248,5.26798 8.63303,3.84417 z m -1.18964,-1.64518 c -3.21942,1.11577 -5.16409,-0.0908 -5.81439,-1.96711 -0.81458,-2.35038 -0.0412,-4.58739 3.79049,-5.91536 3.17992,-1.10208 5.15725,0.071 5.80754,1.94735 0.80774,2.33063 0.0283,4.61399 -3.78364,5.93512 z" />
        <path
           inkscape:connector-curvature="0"
           id="path4205"
           style="font-style:normal;font-variant:normal;font-weight:normal;font-stretch:normal;font-family:'Ancizar Sans';-inkscape-font-specification:'Ancizar Sans';letter-spacing:6.25px;fill:#000000"
           d="m 383.42531,464.11128 0.17525,1.74714 12.72916,-1.27681 -0.16691,-1.66394 -9.75486,0.97847 9.11437,-7.36385 -0.18985,-1.89274 -12.72916,1.27682 0.1669,1.66394 9.87966,-0.99099 -9.22456,7.52196 z" />
        <path
           inkscape:connector-curvature="0"
           id="path4207"
           style="font-style:normal;font-variant:normal;font-weight:normal;font-stretch:normal;font-family:'Ancizar Sans';-inkscape-font-specification:'Ancizar Sans';letter-spacing:6.25px;fill:#000000"
           d="m 388.0621,482.09213 0.44495,-3.7573 5.26148,2.4965 -5.70643,1.2608 z m -5.57451,1.21327 -0.236,1.99283 13.24263,-3.04165 0.25321,-2.13813 -12.16098,-6.09214 -0.22124,1.86828 3.7868,1.79562 -0.55804,4.7122 -4.10638,0.90299 z" />
        <path
           inkscape:connector-curvature="0"
           id="path4209"
           style="font-style:normal;font-variant:normal;font-weight:normal;font-stretch:normal;font-family:'Ancizar Sans';-inkscape-font-specification:'Ancizar Sans';letter-spacing:6.25px;fill:#000000"
           d="m 380.19168,493.38852 -2.16116,6.6609 1.44662,0.68912 1.55263,-5.05627 10.73696,3.48366 0.59351,-1.82926 -12.16856,-3.94815 z" />
      </g>
      <g
         id="text4163"
         style="font-style:normal;font-weight:normal;font-size:17.5px;line-height:0%;font-family:sans-serif;text-align:center;letter-spacing:6.19999981px;word-spacing:0px;text-anchor:middle;fill:#000000;fill-opacity:1;stroke:none;stroke-width:1px;stroke-linecap:butt;stroke-linejoin:miter;stroke-opacity:1">
        <path
           inkscape:connector-curvature="0"
           id="path4212"
           style="font-style:normal;font-variant:normal;font-weight:normal;font-stretch:normal;font-size:20.90364838px;font-family:'Ancizar Sans';-inkscape-font-specification:'Ancizar Sans';fill:#000000"
           d="m 228.90001,522.65859 -9.50189,8.25052 c 0.39869,0.65045 1.24548,1.88074 2.05409,2.81199 2.69992,3.10942 6.61696,3.66707 9.9,0.8164 2.82532,-2.45323 2.87912,-5.73899 0.43959,-8.54852 l -2.89179,-3.33039 z m 0.20336,2.37036 1.21976,1.40476 c 1.80908,2.08347 1.92105,4.6993 -0.52545,6.8236 -2.85688,2.48064 -5.29447,1.74574 -6.76092,0.0569 -0.47968,-0.55243 -1.02165,-1.27225 -1.36759,-1.83008 l 7.4342,-6.45514 z" />
        <path
           inkscape:connector-curvature="0"
           id="path4215"
           style="font-style:normal;font-variant:normal;font-weight:normal;font-stretch:normal;font-size:20.90364838px;font-family:'Ancizar Sans';-inkscape-font-specification:'Ancizar Sans';fill:#000000"
           d="m 232.83721,545.12754 5.85894,4.68923 1.15591,-1.10971 -4.57294,-3.55288 2.76913,-3.45988 3.5839,2.94871 1.06447,-0.99547 -3.78628,-3.03037 2.52095,-3.1498 4.04412,3.34383 1.11672,-1.06075 -5.76102,-4.61087 -7.9939,9.98796 z" />
        <path
           inkscape:connector-curvature="0"
           id="path4217"
           style="font-style:normal;font-variant:normal;font-weight:normal;font-stretch:normal;font-size:20.90364838px;font-family:'Ancizar Sans';-inkscape-font-specification:'Ancizar Sans';fill:#000000"
           d="m 264.52863,561.33926 c -0.95209,0.0535 -2.16394,-0.13824 -3.16607,-0.55927 -2.13918,-0.89874 -3.62834,-3.02085 -2.12234,-6.60541 1.46551,-3.48821 3.79138,-3.73541 5.42949,-3.04719 1.15631,0.48581 2.35344,1.3062 2.92886,1.9334 l 1.07787,-1.27034 c -0.51452,-0.55627 -1.8161,-1.39787 -2.93387,-1.86748 -3.62311,-1.52219 -6.93746,0.21429 -8.48394,3.89522 -1.62745,3.87365 -0.13454,6.90427 3.14168,8.28072 1.40685,0.59106 2.98372,0.77742 3.82017,0.67537 l 0.30815,-1.43502 z" />
        <path
           inkscape:connector-curvature="0"
           id="path4219"
           style="font-style:normal;font-variant:normal;font-weight:normal;font-stretch:normal;font-size:20.90364838px;font-family:'Ancizar Sans';-inkscape-font-specification:'Ancizar Sans';fill:#000000"
           d="m 284.10599,561.58093 c 0.84155,-3.96702 -0.9833,-6.74745 -4.11193,-7.41114 -3.6603,-0.77649 -6.82739,1.15866 -7.72968,5.41196 -0.84588,3.98748 0.96285,6.74312 4.09149,7.40682 3.6603,0.77648 6.84784,-1.15433 7.75012,-5.40764 z m -2.02318,0.16914 c -0.70708,3.33312 -2.74452,4.37536 -4.68714,3.96326 -2.43338,-0.51621 -3.94965,-2.33368 -3.1081,-6.30071 0.6984,-3.29223 2.72407,-4.3797 4.66668,-3.9676 2.41294,0.51187 3.96577,2.35847 3.12856,6.30505 z" />
        <path
           inkscape:connector-curvature="0"
           id="path4221"
           style="font-style:normal;font-variant:normal;font-weight:normal;font-stretch:normal;font-size:20.90364838px;font-family:'Ancizar Sans';-inkscape-font-specification:'Ancizar Sans';fill:#000000"
           d="m 291.73165,568.86761 6.99932,0.21831 0.25846,-1.58139 -5.28866,-0.0813 0.35191,-11.28248 -1.9222,-0.06 -0.39883,12.78681 z" />
        <path
           inkscape:connector-curvature="0"
           id="path4223"
           style="font-style:normal;font-variant:normal;font-weight:normal;font-stretch:normal;font-size:20.90364838px;font-family:'Ancizar Sans';-inkscape-font-specification:'Ancizar Sans';fill:#000000"
           d="m 317.02237,560.51141 c -0.58411,-4.01302 -3.25881,-5.98959 -6.42372,-5.52893 -3.70274,0.53895 -6.00386,3.45101 -5.3776,7.75363 0.58712,4.0337 3.23813,5.9926 6.40304,5.53193 3.70273,-0.53895 6.02454,-3.45401 5.39828,-7.75663 z m -1.83947,0.85921 c 0.49078,3.37176 -1.05975,5.055 -3.02489,5.34103 -2.4616,0.3583 -4.51338,-0.82173 -5.09749,-4.83475 -0.48476,-3.3304 1.03907,-5.05199 3.00421,-5.33803 2.44091,-0.35528 4.53707,0.83941 5.11817,4.83175 z" />
        <path
           inkscape:connector-curvature="0"
           id="path4225"
           style="font-style:normal;font-variant:normal;font-weight:normal;font-stretch:normal;font-size:20.90364838px;font-family:'Ancizar Sans';-inkscape-font-specification:'Ancizar Sans';fill:#000000"
           d="m 332.07872,562.86645 1.48567,-0.56274 -0.24219,-11.08475 4.62101,9.42614 1.7789,-0.67381 -5.84129,-11.46746 -2.11121,0.79969 0.23153,10.82055 -7.11254,-8.21417 -2.07212,0.78488 3.18272,12.47447 1.68116,-0.63679 -2.78822,-10.07566 7.18658,8.40965 z" />
        <path
           inkscape:connector-curvature="0"
           id="path4227"
           style="font-style:normal;font-variant:normal;font-weight:normal;font-stretch:normal;font-size:20.90364838px;font-family:'Ancizar Sans';-inkscape-font-specification:'Ancizar Sans';fill:#000000"
           d="m 346.85263,547.66598 c -0.37032,0.23571 -0.87531,0.53236 -1.30976,0.78412 l -2.31224,-3.6327 1.05806,-0.67347 c 1.51657,-0.9653 2.77514,-0.7009 3.5384,0.49824 0.67347,1.05807 0.36576,2.17075 -0.97446,3.02381 z m 3.53882,4.58649 c -0.52904,0.33674 -1.19274,0.73441 -1.75063,1.06473 l -2.39081,-3.75613 c 0.44727,-0.30947 0.96508,-0.66384 1.3354,-0.89956 1.71055,-1.08877 3.16309,-0.94784 3.98248,0.33948 0.79694,1.25205 0.21668,2.36475 -1.17644,3.25148 z m -2.62096,3.27889 2.87442,-1.82959 c 2.76861,-1.76224 3.61167,-4.05816 2.39943,-5.96268 -1.0102,-1.5871 -2.71604,-1.54203 -3.97293,-1.06414 0.58507,-1.06621 0.77412,-2.32638 -3.6e-4,-3.54315 -0.96531,-1.51657 -2.89723,-1.74884 -4.9781,-0.42435 l -3.19183,2.03163 6.86937,10.79228 z" />
        <path
           inkscape:connector-curvature="0"
           id="path4229"
           style="font-style:normal;font-variant:normal;font-weight:normal;font-stretch:normal;font-size:20.90364838px;font-family:'Ancizar Sans';-inkscape-font-specification:'Ancizar Sans';fill:#000000"
           d="m 355.10543,534.40907 -1.45303,1.25983 8.38056,9.6658 1.45303,-1.25982 -8.38056,-9.66581 z" />
        <path
           inkscape:connector-curvature="0"
           id="path4231"
           style="font-style:normal;font-variant:normal;font-weight:normal;font-stretch:normal;font-size:20.90364838px;font-family:'Ancizar Sans';-inkscape-font-specification:'Ancizar Sans';fill:#000000"
           d="m 370.33731,529.25116 -2.4591,2.87545 -2.98484,-5.00065 5.44394,2.1252 z m 5.30787,2.09135 1.30427,-1.5251 -12.69786,-4.83562 -1.39938,1.6363 6.71994,11.82565 1.22276,-1.42978 -2.1489,-3.59811 3.08406,-3.60621 3.91511,1.53287 z" />
      </g>
    </g>
  </g>
</svg>
