<?xml version="1.0" encoding="utf-8"?>
<svg xmlns="http://www.w3.org/2000/svg" xmlns:xlink="http://www.w3.org/1999/xlink" version="1.1" id="Layer_1" x="0px" y="0px" viewBox="0 0 256 256" enable-background="new 0 0 256 256" xml:space="preserve">
<path fill-rule="evenodd" clip-rule="evenodd" fill="#191717" d="M 111.12108,-0.02929684 C 101.80865,0.03892736 96.97037,1.6195522 88.71483,6.0546875 64.238793,19.203993 47.61522,50.262402 47.61522,82.84375 c 0,28.54129 13.001669,48.66509 39.558594,61.22852 15.933956,7.53796 15.933966,7.53799 9.732426,19.85351 -3.410854,6.77345 -14.584358,21.05444 -24.828129,31.73633 -10.243771,10.6817 -18.625,20.66474 -18.625,22.18555 0,7.02332 19.009821,27.97458 30.103516,33.17773 17.177763,8.05646 46.284493,6.11153 73.531253,-4.91211 46.07561,-18.64135 68.79338,-61.41864 51.07422,-96.17383 -4.97319,-9.75464 -5.35422,-12.98745 -2.53711,-21.52343 1.96863,-5.96519 2.71177,-19.73225 1.82812,-33.896489 -3.502,-56.13288 -35.20883,-91.1606179 -85.23633,-94.16406224 -4.39088,-0.2636072 -7.99156,-0.4075071 -11.0957,-0.3847656 z M 144.47655,142.86719 c 4.11605,0.28801 6.77344,9.3686 6.77344,24.65625 0,13.45582 -1.34596,20.07255 -4.78321,23.50976 -4.43155,4.43155 -5.04743,3.98487 -8.36914,-6.08008 -3.96295,-12.00787 -2.46383,-35.13382 2.60547,-40.20312 1.35495,-1.35495 2.62095,-1.96346 3.77344,-1.88281 z m -19.58984,31.30273 c 0.19899,0.0554 0.42104,0.50884 0.65234,1.39649 0.74017,2.84025 0.69224,6.78141 -0.10742,8.75781 -0.79966,1.97659 -1.40521,-0.34721 -1.34571,-5.16406 0.0409,-3.31145 0.363,-5.11212 0.80079,-4.99024 z"/>
</svg>
