<?xml version="1.0" encoding="UTF-8" standalone="no"?>
<svg
   xmlns:dc="http://purl.org/dc/elements/1.1/"
   xmlns:cc="http://creativecommons.org/ns#"
   xmlns:rdf="http://www.w3.org/1999/02/22-rdf-syntax-ns#"
   xmlns:svg="http://www.w3.org/2000/svg"
   xmlns="http://www.w3.org/2000/svg"
   xmlns:sodipodi="http://sodipodi.sourceforge.net/DTD/sodipodi-0.dtd"
   xmlns:inkscape="http://www.inkscape.org/namespaces/inkscape"
   version="1.1"
   width="455px"
   height="150px"
   xml:space="preserve"
   id="svg52"
   sodipodi:docname="logo.svg"
   inkscape:version="1.0.2 (e86c870879, 2021-01-15)"><metadata
   id="metadata58"><rdf:RDF><cc:Work
       rdf:about=""><dc:format>image/svg+xml</dc:format><dc:type
         rdf:resource="http://purl.org/dc/dcmitype/StillImage" /><dc:title></dc:title></cc:Work></rdf:RDF></metadata><defs
   id="defs56">
</defs>
<g
   id="logo"
   style="stroke:none;stroke-opacity:1">
	<path
   style="fill:#fee85e;stroke:none;stroke-opacity:1"
   d="M 82.375,81.833 96,80 C 107.667,74.333 104,27.667 81.667,14 59.334,0.333 28.667,0.667 19.333,38.667 c -9.334,38 28.917,46.166 28.917,46.166 0,0 -3.625,4.625 0,0 3.625,-4.625 6.75,-7.75 6.75,-7.75 l 4.375,1.375 c 13.625,5.75 23,3.375 23,3.375"
   id="path2" />
	<path
   style="fill:#6fa03c;stroke:none;stroke-opacity:1"
   d="m 51,79.333 c 0,0 -9.001,16 -11.167,20.167 0,0 -15.833,13.166 -18.333,20.333 0,0 10.833,33.5 54.333,14.5 43.5,-19 25.5,-52.667 25.5,-52.667 0,0 -8.166,-12 -19.166,-0.833 0,0 -13.833,-6.5 -23.5,-6.5 l -7.667,5 z"
   id="path4" />
	<path
   style="fill:#4d6d29;stroke:none;stroke-opacity:1"
   d="m 89.375,86.458 c 0,0 0.375,5.125 -2,14.5 0,0 2.875,-3.375 3.75,-7.125 0,0 9.375,7 5.875,25.75 l 1.25,-1.625 c 0,0 5.125,-14.375 -7.375,-26.625 0,0 0.5,-2.625 -1.5,-4.875 z"
   id="path6" />
	<path
   d="m 79,87 c 0,0 12,-16.292 24.125,-0.417 l 0.083,-0.203 c -0.933,-2.947 -1.875,-4.714 -1.875,-4.714 0,0 -8.166,-12 -19.166,-0.833 0,0 -2.292,3.125 -3.042,5.5 L 79,87 z"
   style="fill:#4d6d29;stroke:none;stroke-opacity:1"
   id="path8" />
	<path
   style="fill:#ffe85f;stroke:none;stroke-opacity:1"
   d="m 81.167,82.333 c 0,0 -6.917,2.625 -22.417,-4.375 l -3,-1.375 1.625,-2.75 c 0,0 10.875,0.313 25,6.688 l -1.208,1.812 z"
   id="path10" />
	<path
   style="fill:#edd859;stroke:none;stroke-opacity:1"
   d="m 53.833,10.833 c 0,0 27.333,-1.167 38,23.5 10.667,24.667 4.834,43 4.834,43 0,0 -6.618797,-4.546237 -14.382858,3.243801 0,0 -4.21915,3.962394 -24.951142,-4.409801 0,0 -37.334,-39.334 -3.5,-65.334 z"
   id="path12" />
	<path
   style="fill:#618d34;stroke:none;stroke-opacity:1"
   d="m 29,122.25 -6.833,-0.75 c 2.89,6.471 15.901,28.829 52.701,13.242 C 63.568,136.683 45.75,115.5 45.75,115.5 c -1.917,-0.167 -5.083,4.667 -6.083,5.083 -1,0.416 -2,2.167 -7,1.917 -5,-0.25 -3.667,-0.25 -3.667,-0.25 z"
   id="path14" />
	<path
   style="fill:#618d34;fill-opacity:1;stroke:none;stroke-opacity:1"
   d="m 68.755955,107.51107 c 0,0 5.881105,-0.47847 10.381105,-21.228465 0.383619,-1.172264 1.009046,-2.346079 2.002326,-3.899348 -3.945124,0.85683 -7.289644,0.257945 -11.119855,-0.393721 z"
   id="path16" />
	<path
   d="m 29.333,121.5 -7.691,-2.024 c -0.048,0.119 -0.101,0.241 -0.142,0.357 0,0 0.229,0.705 0.749,1.848 l 0.168,-0.014 c 0,0 4.832,1.166 6.666,0.833 l 0.25,-1 z"
   style="fill:#4d6d29;stroke:none;stroke-opacity:1"
   id="path18" />
	<path
   style="fill:#4d6d29;stroke:none;stroke-opacity:1"
   d="m 39.583,120.917 c 0,0 3.167,-3.75 6.167,-5.333 0,0 -1.916,-0.917 -3.083,-0.583 -1.167,0.334 -3.834,5.5 -3.834,5.917 0,-0.001 0.083,0.249 0.75,-0.001 z"
   id="path20" />
	<ellipse
   style="fill:#ffffff;stroke:none;stroke-opacity:1"
   ry="13.917"
   rx="4.3330002"
   cy="93.583"
   cx="68.5"
   id="ellipse22" />
	<ellipse
   style="fill:#444444;stroke:none;stroke-opacity:1"
   ry="4.5830002"
   rx="1.1670001"
   cy="98.917"
   cx="58.5"
   id="ellipse24" />
	<ellipse
   style="fill:#444444;stroke:none;stroke-opacity:1"
   ry="4.5830002"
   rx="1.1670001"
   cy="96.5"
   cx="69.417"
   id="ellipse26" />
	<path
   style="fill:#feed7b;stroke:none;stroke-opacity:1"
   d="m 37.167,15.833 c 0,0 -21,28 -3,51.333 18,23.333 -3.833,6.667 -7.5,1.5 C 23,63.499 12,35.5 37.167,15.833 z"
   id="path28" />
	<path
   style="fill:#88b25c;stroke:none;stroke-opacity:1"
   d="m 52.334,83.167 c 0,0 -6.542,11.042 -8.042,15.375 -1.5,4.333 -10.293,5.5 -11.459,14.333 0,0 -0.666,3.375 -9.666,6.042 0,0 13.082,-15.75 17.916,-19.25 0,0 4.751,-10.333 11.251,-16.5 z"
   id="path30" />
	<path
   style="fill:#a5923f;stroke:none;stroke-opacity:1"
   d="m 48.939,72.594 0.436,-0.804 c 0,0 -0.499,0.186 -1.374,0.352 -3.349,0.632 -12.194,0.962 -19.626,-10.558 0,0 5.25,14.357 19.5,12.974 l 1.064,-1.964 z"
   id="path32" />
	<path
   style="fill:#a5923f;stroke:none;stroke-opacity:1"
   d="m 48.477,68.414 c 0,0 -11.863,-10.738 -5.749,-29.719 0,0 -0.998,18.511 9.105,29.093 l -3.356,0.626 z"
   id="path34" />
	<path
   style="fill:#a5923f;stroke:none;stroke-opacity:1"
   d="m 54.174,70.786 c 0,0 -1.352,-7.127 16.494,-17.718 0,0 -17.352,8.871 -19.564,16.674 l 3.669,0.826"
   id="path36" />
	<ellipse
   style="fill:#892015;stroke:none;stroke-opacity:1"
   ry="10.477"
   rx="4.4219999"
   cy="73.019997"
   cx="52.428001"
   transform="matrix(0.9003,-0.4352,0.4352,0.9003,-26.5554,30.0985)"
   id="ellipse38" />
	<ellipse
   style="fill:#d1371e;stroke:none;stroke-opacity:1"
   ry="9.2609997"
   rx="4.118"
   cy="73.678001"
   cx="51.068001"
   transform="matrix(0.9003,-0.4352,0.4352,0.9003,-26.9735,29.5656)"
   id="ellipse40" />
	<path
   style="fill:#e87853;stroke:none;stroke-opacity:1"
   d="m 48.375,65.912 c 0,0 -2.713,5.25 2.37,10.917 0,0 -1.329,1.162 -0.995,2.162 0,0 -3.5,-4.469 -3.906,-9.219 -0.32,-3.738 1.109,-4.907 2.531,-3.86 z"
   id="path42" />
	<path
   style="fill:#e87853;stroke:none;stroke-opacity:1"
   d="m 51.083,77.146 c 0,0 -1.188,1.229 -1,2.042 0,0 0.271,0.417 0.459,0.563 0,0 0.792,-1.313 1.375,-1.604 l -0.834,-1.001 z"
   id="path44" />
	<path
   style="fill:#bf3119;stroke:none;stroke-opacity:1"
   d="m 48.667,66.083 c 0,0 -3.542,8.125 7.416,13.625 0,0 -0.833,-10.5 -7.416,-13.625 z"
   id="path46" />
</g>
<g
   id="name"
   style="fill:#f2f2f2;fill-opacity:1">
	<g
   aria-label="INGInious"
   id="text49"
   style="font-size:108px;font-family:'Yanone Kaffeesatz Light';fill:#f2f2f2;fill-opacity:1"><path
     d="M 136.372,120 V 46.992 q 0,-1.944 0.648,-2.268 0.648,-0.324 4.32,-0.324 v 74.304 q 0,0.972 -0.756,1.188 -0.648,0.108 -4.212,0.108 z"
     style="fill:#f2f2f2;fill-opacity:1"
     id="path3253" /><path
     d="M 154.08395,120 V 45.696 q 0,-1.296 1.296,-1.296 h 3.348 l 13.176,30.024 q 0.216,0.756 1.512,3.78 1.296,3.024 3.024,7.452 1.836,4.32 3.78,9.072 1.944,4.644 3.564,8.748 1.728,3.996 2.7,6.372 0,-2.16 -0.108,-6.588 0,-4.428 -0.108,-9.612 0,-5.184 0,-10.044 0,-4.968 0,-8.316 0,-3.348 0,-3.78 V 45.696 q 0,-0.972 0.54,-1.08 0.648,-0.216 4.32,-0.216 v 74.304 q 0,1.296 -1.404,1.296 h -3.24 l -13.5,-30.564 q -0.216,-0.648 -1.404,-3.456 -1.188,-2.916 -2.916,-7.128 -1.728,-4.212 -3.672,-8.856 -1.836,-4.644 -3.564,-8.748 -1.728,-4.212 -2.808,-7.02 0,2.592 0,7.128 0.108,4.428 0.108,9.504 0.108,5.076 0.108,9.828 0.108,4.644 0.108,7.884 0,3.132 0,3.564 v 26.568 q 0,0.972 -0.648,1.188 -0.54,0.108 -4.212,0.108 z"
     style="fill:#f2f2f2;fill-opacity:1"
     id="path3255" /><path
     d="m 222.01585,121.08 q -4.644,0 -8.316,-1.512 -3.672,-1.512 -6.372,-5.508 -2.592,-3.996 -4.104,-11.448 -1.404,-7.452 -1.404,-19.44 0,-12.312 1.62,-20.088 1.62,-7.884 4.644,-12.096 3.024,-4.32 7.128,-5.94 4.104,-1.728 9.18,-1.728 4.86,0 7.992,1.512 3.24,1.404 3.24,3.24 0,1.62 -0.756,3.132 -1.728,-1.404 -4.104,-2.16 -2.268,-0.864 -5.508,-0.864 -4.212,0 -7.668,1.512 -3.348,1.512 -5.724,5.292 -2.376,3.78 -3.672,10.584 -1.296,6.804 -1.296,17.28 0,11.232 1.188,17.928 1.188,6.696 3.24,10.044 2.16,3.348 4.86,4.428 2.808,0.972 6.048,0.972 4.212,0 6.696,-1.728 2.484,-1.728 2.916,-2.808 V 81.768 h -11.448 v -2.916 q 0,-1.404 1.512,-1.404 h 14.688 l -0.108,37.044 q -0.648,0.972 -2.376,2.592 -1.62,1.512 -4.644,2.808 -2.916,1.188 -7.452,1.188 z"
     style="fill:#f2f2f2;fill-opacity:1"
     id="path3257" /><path
     d="M 247.39578,120 V 46.992 q 0,-1.944 0.648,-2.268 0.648,-0.324 4.32,-0.324 v 74.304 q 0,0.972 -0.756,1.188 -0.648,0.108 -4.212,0.108 z"
     style="fill:#f2f2f2;fill-opacity:1"
     id="path3259" /><path
     d="M 265.10773,120 V 68.7 q 3.888,-1.62 8.424,-2.7 4.536,-1.08 9.18,-1.08 5.832,0 8.964,1.728 3.24,1.62 4.428,4.968 1.296,3.24 1.296,8.316 v 38.772 q 0,0.972 -0.648,1.188 -0.648,0.108 -4.32,0.108 V 81.12 q 0,-6.048 -1.944,-8.856 -1.836,-2.916 -7.884,-2.916 -2.592,0 -6.264,0.648 -3.672,0.648 -6.372,2.052 v 46.656 q 0,0.972 -0.648,1.188 -0.648,0.108 -4.212,0.108 z"
     style="fill:#f2f2f2;fill-opacity:1"
     id="path3261" /><path
     d="M 313.16768,120 V 68.484 q 0,-1.836 0.972,-2.16 0.972,-0.324 3.888,-0.324 v 52.704 q 0,0.972 -0.648,1.188 -0.54,0.108 -4.212,0.108 z m 2.268,-64.584 q -2.916,-0.108 -2.808,-4.32 0.108,-4.32 3.132,-4.32 3.024,0 2.916,4.32 -0.216,4.32 -3.24,4.32 z"
     style="fill:#f2f2f2;fill-opacity:1"
     id="path3263" /><path
     d="m 345.35154,121.08 q -3.888,0 -7.02,-0.972 -3.132,-0.972 -5.292,-3.78 -2.16,-2.916 -3.348,-8.424 -1.188,-5.616 -1.188,-14.796 0,-15.012 4.86,-21.6 4.86,-6.588 13.176,-6.588 5.508,0 9.18,2.484 3.78,2.376 5.616,8.532 1.836,6.048 1.836,17.064 0,14.472 -4.644,21.276 -4.536,6.804 -13.176,6.804 z m 0.108,-4.32 q 5.832,0 9.18,-5.616 3.456,-5.616 3.456,-18.36 0,-9.612 -1.404,-14.688 -1.404,-5.076 -3.996,-6.912 -2.592,-1.944 -6.372,-1.944 -3.78,0 -6.696,2.268 -2.808,2.268 -4.428,7.56 -1.512,5.292 -1.512,14.58 0,9.504 1.404,14.472 1.404,4.968 3.996,6.804 2.592,1.836 6.372,1.836 z"
     style="fill:#f2f2f2;fill-opacity:1"
     id="path3265" /><path
     d="m 389.73936,121.08 q -6.372,0 -9.828,-1.944 -3.456,-2.052 -4.752,-6.372 -1.296,-4.428 -1.296,-11.556 V 67.296 q 0,-0.972 0.54,-1.08 0.648,-0.216 4.32,-0.216 v 35.964 q 0,5.616 0.972,8.856 0.972,3.132 3.456,4.536 2.484,1.296 7.128,1.296 1.944,0 5.076,-0.54 3.24,-0.54 5.94,-2.16 V 67.296 q 0,-0.972 0.648,-1.08 0.756,-0.216 4.212,-0.216 v 51.408 q -3.78,1.836 -8.208,2.7 -4.32,0.972 -8.208,0.972 z"
     style="fill:#f2f2f2;fill-opacity:1"
     id="path3267" /><path
     d="m 431.21132,121.08 q -6.372,0 -10.044,-1.296 -3.672,-1.404 -3.672,-3.132 0,-0.756 0.216,-1.512 0.216,-0.756 0.864,-1.512 2.484,1.512 5.292,2.268 2.916,0.648 7.02,0.648 5.724,0 9.18,-2.16 3.456,-2.268 3.456,-6.912 0,-3.456 -1.62,-6.048 -1.62,-2.592 -5.076,-5.184 l -11.664,-7.884 q -4.644,-3.024 -6.048,-5.616 -1.404,-2.7 -1.404,-5.724 0,-5.724 4.752,-8.856 4.86,-3.24 12.744,-3.24 4.968,0 7.992,0.972 3.132,0.972 4.536,2.268 1.404,1.188 1.404,1.944 0,1.296 -1.296,2.808 -2.808,-1.836 -5.724,-2.7 -2.808,-0.864 -6.48,-0.864 -5.292,0 -8.964,1.944 -3.564,1.944 -3.564,5.724 0,2.052 1.08,3.888 1.08,1.728 4.644,4.104 l 12.312,8.208 q 3.888,3.132 5.724,6.264 1.944,3.132 1.944,7.236 0,7.02 -4.644,10.692 -4.644,3.672 -12.96,3.672 z"
     style="fill:#f2f2f2;fill-opacity:1"
     id="path3269" /></g>
</g>
<path
   id="path1071"
   style="fill:none;stroke:#f2f2f2;stroke-opacity:1;stroke-width:1;stroke-miterlimit:4;stroke-dasharray:none"
   d="m 54.599111,5.7788578 c -15.25724,0.10102 -29.42406,9.1367202 -35.25781,32.8867202 -9.12821,37.16217 27.02213,45.729343 28.63086,46.091793 -2.81248,5.021281 -6.65437,11.901687 -8.13086,14.742188 0,0 -15.83203,13.165031 -18.33203,20.332031 0,0 10.83203,33.5 54.33203,14.5 43.499999,-19 25.499999,-52.666016 25.499999,-52.666016 0,0 -1.1869,-1.734619 -3.255859,-3.271484 9.034009,-9.986253 4.472569,-51.615042 -16.41016,-64.394532 -8.37487,-5.1251202 -17.92183,-8.2813202 -27.07617,-8.2207002 z" /></svg>
