<?xml version="1.0" encoding="utf-8"?>
<!DOCTYPE svg PUBLIC "-//W3C//DTD SVG 1.1//EN" "http://www.w3.org/Graphics/SVG/1.1/DTD/svg11.dtd">
<svg version="1.1" xmlns="http://www.w3.org/2000/svg" xmlns:xlink="http://www.w3.org/1999/xlink"
	 width="125px" height="180px" xml:space="preserve">
<g id="logo">
	<path
	   style="fill:#fee85e;"
	   d="M 82.375,81.833 96,80 C 107.667,74.333 104,27.667 81.667,14 59.334,0.333 28.667,0.667 19.333,38.667 c -9.334,38 28.917,46.166 28.917,46.166 0,0 -3.625,4.625 0,0 3.625,-4.625 6.75,-7.75 6.75,-7.75 l 4.375,1.375 c 13.625,5.75 23,3.375 23,3.375" />
	<path
	   style="fill:#6fa03c"
	   d="m 51,79.333 c 0,0 -9.001,16 -11.167,20.167 0,0 -15.833,13.166 -18.333,20.333 0,0 10.833,33.5 54.333,14.5 43.5,-19 25.5,-52.667 25.5,-52.667 0,0 -8.166,-12 -19.166,-0.833 0,0 -13.833,-6.5 -23.5,-6.5 l -7.667,5 z" />
	<path
	   style="fill:#4d6d29"
	   d="m 89.375,86.458 c 0,0 0.375,5.125 -2,14.5 0,0 2.875,-3.375 3.75,-7.125 0,0 9.375,7 5.875,25.75 l 1.25,-1.625 c 0,0 5.125,-14.375 -7.375,-26.625 0,0 0.5,-2.625 -1.5,-4.875 z" />
	<path
	   d="m 79,87 c 0,0 12,-16.292 24.125,-0.417 l 0.083,-0.203 c -0.933,-2.947 -1.875,-4.714 -1.875,-4.714 0,0 -8.166,-12 -19.166,-0.833 0,0 -2.292,3.125 -3.042,5.5 L 79,87 z"
	   style="fill:#4d6d29" />
	<path
	   style="fill:#ffe85f"
	   d="m 81.167,82.333 c 0,0 -6.917,2.625 -22.417,-4.375 l -3,-1.375 1.625,-2.75 c 0,0 10.875,0.313 25,6.688 l -1.208,1.812 z" />
	<path
	   style="fill:#edd859;"
	   d="m 53.833,10.833 c 0,0 27.333,-1.167 38,23.5 10.667,24.667 4.834,43 4.834,43 0,0 -6.618797,-4.546237 -14.382858,3.243801 0,0 -4.21915,3.962394 -24.951142,-4.409801 0,0 -37.334,-39.334 -3.5,-65.334 z" />
	<path
	   style="fill:#618d34;"
	   d="m 29,122.25 -6.833,-0.75 c 2.89,6.471 15.901,28.829 52.701,13.242 C 63.568,136.683 45.75,115.5 45.75,115.5 c -1.917,-0.167 -5.083,4.667 -6.083,5.083 -1,0.416 -2,2.167 -7,1.917 -5,-0.25 -3.667,-0.25 -3.667,-0.25 z" />
	<path
	   style="fill:#618d34;fill-opacity:1"
	   d="m 68.755955,107.51107 c 0,0 5.881105,-0.47847 10.381105,-21.228465 0.383619,-1.172264 1.009046,-2.346079 2.002326,-3.899348 -3.945124,0.85683 -7.289644,0.257945 -11.119855,-0.393721 z" />
	<path
	   d="m 29.333,121.5 -7.691,-2.024 c -0.048,0.119 -0.101,0.241 -0.142,0.357 0,0 0.229,0.705 0.749,1.848 l 0.168,-0.014 c 0,0 4.832,1.166 6.666,0.833 l 0.25,-1 z"
	   style="fill:#4d6d29" />
	<path
	   style="fill:#4d6d29"
	   d="m 39.583,120.917 c 0,0 3.167,-3.75 6.167,-5.333 0,0 -1.916,-0.917 -3.083,-0.583 -1.167,0.334 -3.834,5.5 -3.834,5.917 0,-0.001 0.083,0.249 0.75,-0.001 z" />
	<ellipse
	   style="fill:#ffffff"
	   ry="13.917"
	   rx="4.3330002"
	   cy="93.583"
	   cx="68.5" />
	<ellipse
	   style="fill:#444444"
	   ry="4.5830002"
	   rx="1.1670001"
	   cy="98.917"
	   cx="58.5" />
	<ellipse
	   style="fill:#444444"
	   ry="4.5830002"
	   rx="1.1670001"
	   cy="96.5"
	   cx="69.417" />
	<path
	   style="fill:#feed7b;"
	   d="m 37.167,15.833 c 0,0 -21,28 -3,51.333 18,23.333 -3.833,6.667 -7.5,1.5 C 23,63.499 12,35.5 37.167,15.833 z" />
	<path
	   style="fill:#88b25c;"
	   d="m 52.334,83.167 c 0,0 -6.542,11.042 -8.042,15.375 -1.5,4.333 -10.293,5.5 -11.459,14.333 0,0 -0.666,3.375 -9.666,6.042 0,0 13.082,-15.75 17.916,-19.25 0,0 4.751,-10.333 11.251,-16.5 z" />
	<path
	   style="fill:#a5923f"
	   d="m 48.939,72.594 0.436,-0.804 c 0,0 -0.499,0.186 -1.374,0.352 -3.349,0.632 -12.194,0.962 -19.626,-10.558 0,0 5.25,14.357 19.5,12.974 l 1.064,-1.964 z" />
	<path
	   style="fill:#a5923f"
	   d="m 48.477,68.414 c 0,0 -11.863,-10.738 -5.749,-29.719 0,0 -0.998,18.511 9.105,29.093 l -3.356,0.626 z" />
	<path
	   style="fill:#a5923f"
	   d="m 54.174,70.786 c 0,0 -1.352,-7.127 16.494,-17.718 0,0 -17.352,8.871 -19.564,16.674 l 3.669,0.826" />
	<ellipse
	   style="fill:#892015"
	   ry="10.477"
	   rx="4.4219999"
	   cy="73.019997"
	   cx="52.428001"
	   transform="matrix(0.9003,-0.4352,0.4352,0.9003,-26.5554,30.0985)" />
	<ellipse
	   style="fill:#d1371e"
	   ry="9.2609997"
	   rx="4.118"
	   cy="73.678001"
	   cx="51.068001"
	   transform="matrix(0.9003,-0.4352,0.4352,0.9003,-26.9735,29.5656)" />
	<path
	   style="fill:#e87853;"
	   d="m 48.375,65.912 c 0,0 -2.713,5.25 2.37,10.917 0,0 -1.329,1.162 -0.995,2.162 0,0 -3.5,-4.469 -3.906,-9.219 -0.32,-3.738 1.109,-4.907 2.531,-3.86 z" />
	<path
	   style="fill:#e87853;"
	   d="m 51.083,77.146 c 0,0 -1.188,1.229 -1,2.042 0,0 0.271,0.417 0.459,0.563 0,0 0.792,-1.313 1.375,-1.604 l -0.834,-1.001 z" />
	<path
	   style="fill:#bf3119;"
	   d="m 48.667,66.083 c 0,0 -3.542,8.125 7.416,13.625 0,0 -0.833,-10.5 -7.416,-13.625 z" />
</g>
<g id="name">
	<text
	   x="10"
	   y="175"
	   style="font-size:36px;fill:#618d34;font-family:Yanone Kaffeesatz Light;">INGInious</text>
</g>
</svg>